<?xml version="1.0" encoding="utf-8"?>
<!-- Generator: Adobe Illustrator 27.5.0, SVG Export Plug-In . SVG Version: 6.00 Build 0)  -->
<svg version="1.1" xmlns="http://www.w3.org/2000/svg" xmlns:xlink="http://www.w3.org/1999/xlink" x="0px" y="0px"
	 viewBox="0 0 1700 2400" style="enable-background:new 0 0 1700 2400;" xml:space="preserve">
<g id="BACKGROUND">
	<rect style="fill:#F9DFAD;" width="1700" height="2400"/>
</g>
<g id="OBJECTS">
	<circle style="fill:#FCEABD;" cx="850" cy="811.945" r="355.178"/>
	<g>
		<g>
			<path style="fill:#F7C784;" d="M1700,2400V1219.898c-4.163,0.361-8.304-0.509-12.34-0.994
				c-31.281-3.761-61.126-14.712-92.441-18.822c-25.158-3.301-49.219-11.816-73.291-19.999c-23.241-7.9-45.624-17.692-67.625-28.473
				c-11.393-5.583-20.38-14.927-32.191-20.319c-30.845-14.08-62.976-24.273-95.491-32.92c-11.585-3.081-24.372-8.816-36.994-1.42
				c-12.795,7.497-25.333,15.198-36.285,25.524c-13.588,12.811-27.52,25.503-45.227,32.32c-9.401,3.619-20.021,3.047-28.909,9.156
				c-6.34,4.357-13.874,4.375-21.567,3.531c-14.483-1.589-28.135,0.021-40.483,9.73c-14.608,11.486-30.921,20.254-49.094,24.728
				c-10.4,2.561-21.393,3.357-31.292,7.16c-33.422,12.839-68.386,20.514-102.088,32.348c-12.494,4.387-26.329,3.146-38.607,8.408
				c-20.236,8.671-41.884,12.627-62.538,20.296c-30.63,11.374-63.098,9.858-93.97-0.928c-20.865-7.289-39.6-20.172-61.347-25.861
				c-9.804-2.565-19.027-9.585-28.696-9.978c-13.472-0.548-26.92,4.119-37.318,13.97c-10.146,9.612-19.447,20.143-29.647,29.691
				c-7.783,7.286-16.837,12.764-28.135,9.198c-9.83-3.103-19.685-6.337-29.121-10.471c-20.624-9.035-41.949-2.914-62.938-3.708
				c-1.739-0.066-3.694,1.212-5.281,2.276c-7.91,5.305-13.482,14.705-23.395,16.269c-19.802,3.124-39.723,5.684-59.68,7.526
				c-17.341,1.599-32.902-7.603-49.68-10.112c-11.416-1.707-22.499-7.405-34.266-3.884c-8.881,2.657-17.53,5.487-26.863,6.724
				c-15.247,2.02-26.692,13.304-40.438,19.277c-16,6.952-31.396,16.249-48.815,18.235c-28.434,3.242-56.516,8.542-84.741,12.964
				c-17.029,2.668-33.87,5.982-51.203,6.768c-12.796,0.579-25.54,2.614-38.001,6.228V2400H1700z"/>
		</g>
		<g>
			<path style="fill:#F4B870;" d="M1700,2400V1261.24c-15.307-6.514-31.532-4.912-47.593-2.912
				c-11.953,1.488-20.057,10.27-28.128,18.459c-4.916,4.987-10.267,7.709-17.558,6.138c-10.821-2.332-21.392-0.566-31.524,3.657
				c-8.078,3.367-16.47,4.06-24.673,1.86c-25.149-6.745-51.172-4.923-76.671-8.336c-9.206-1.232-17.681-2.448-26.123-6.675
				c-22.146-11.09-45.019-20.067-70.324-20.24c-2.448-0.017-5.018-1.427-7.304-2.634c-10.235-5.407-19.134-13.832-31.375-14.675
				c-6.998-0.482-13.907-1.414-20.182-4.57c-17.656-8.882-35.563-11.722-55.443-8.037c-14.008,2.596-27.249,3.862-36.165,16.912
				c-8.528,12.48-20.322,20.329-35.309,22.286c-13.104,1.712-23.745,7.875-32.679,17.309c-8.248,8.71-18.052,9.01-28.679,6.455
				c-5.081-1.222-10.251-1.515-15.517-1.249c-9.386,0.474-16.417,6.586-24.598,9.924c-13.831,5.643-29.102,4.904-43.166,9.438
				c-13.451,4.336-26.96,7.055-41.19,6.803c-8.208-0.145-16.115,2.483-23.91,5.656c-17.085,6.956-34.106,14.697-51.88,19.096
				c-13.912,3.443-26.825,6.71-36.133,18.444c-1.723,2.172-3.952,2.725-6.339,1.857c-15.662-5.695-31.279-11.519-46.929-17.247
				c-10.537-3.857-20.813-9.136-32.628-4.936c-9.354,3.325-18.647,6.809-28.865,6.926c-4.502,0.052-8.665,2.418-12.652,4.992
				c-10.875,7.025-20.089,16.906-32.721,20.871c-9.722,3.052-20.215,1.72-30.095,4.75c-7.692,2.359-14.861,6.472-23.095,7.077
				c-6.636,0.487-13.501,0.315-19.829,2.06c-12.727,3.511-25.036,8.566-37.743,12.167c-11.873,3.365-24.563-0.065-36.352,2.414
				c-29.757,6.255-56.372-2.931-82.726-14.731c-18.597-8.327-37.122-16.662-58.135-16.207c-8.36,0.181-15.227,4.529-22.686,7.247
				c-16.655,6.068-33.227-0.286-49.781-0.771c-16.867-0.494-33.669-3.984-50.454-6.474c-16.53-2.452-33.014-5.172-49.048-10.204
				c-14.603-4.583-28.136-13.123-43.666-14.004c-13.152-0.746-26.06-1.819-38.599-6.141c-9.916-3.418-20.118-5.674-30.492-7.18
				c-21.145-3.07-41.416-9.804-61.929-15.481c-14.497-4.012-26.179-14.666-40.851-18.359c-5.978-1.505-12.081-2.649-17.278-6.251
				c-13.136-9.105-26.595-17.577-40.982-24.436V2400H1700z"/>
		</g>
		<g>
			<path style="fill:#F1AA61;" d="M1700,2400V1382.706c-7.902-4.919-15.313-10.762-24.691-12.949
				c-16.251-3.79-32.796-4.79-49.298-6.567c-9.337-1.006-18.22-5.752-27.526-7.78c-22.955-5.001-46.25-2.253-69.389-1.82
				c-6.682,0.125-13.806,2.626-20.172,1.029c-16.29-4.087-32.803-7.04-48.477-14.136c-19.023-8.612-39.355-15.205-55.861-27.907
				c-13.58-10.45-26.498-19.414-43.857-21.662c-11.474-1.486-22.332-4.27-31.035,6.381c-4.596,5.625-9.226,11.222-13.92,16.762
				c-10.573,12.48-21.449,23.838-39.849,23.312c-9.88-0.282-18.901,4.511-27.714,9.141c-9.575,5.03-17.692,13.509-29.082,14.314
				c-10.582,0.748-19.287,5.267-27.478,11.521c-20.402,15.575-43.71,26.337-66.145,38.047c-13.51,7.052-29.63,9.451-42.587,18.944
				c-6.808,4.988-14.455,8.562-23.073,7.364c-16.504-2.293-31.866,0.826-47.005,7.61c-19.408,8.698-39.326,16.201-59.64,22.455
				c-18.887,5.815-38.045,10.734-56.878,16.715c-10.573,3.358-20.464,9.233-31.697,10.133c-21.076,1.688-41.901,5.114-62.035,11.33
				c-21.456,6.624-42.41,13.907-65.501,12.296c-9.854-0.688-19.894,2.399-29.552,5.646c-14.304,4.809-27.085,14.843-42.225,15.823
				c-14.536,0.941-27.738,5.007-40.858,10.439c-19.803,8.199-40.22,10.349-61.232,6.454c-15.903-2.948-31.449-2.111-46.74,3.522
				c-22.948,8.454-46.27,14.916-70.916,16.283c-17.1,0.949-34.138,3.673-49.97,10.998c-13.426,6.212-27.049,10.677-42.077,11.473
				c-21.515,1.14-42.004,6.903-61.009,17.684c-16.621,9.429-34.16,16.014-53.435,17.501c-17.06,1.316-34.294,2.202-50.87,6.758
				c-41.424,11.385-81.344,27.311-121.512,42.452C44.989,1690.457,23.068,1697.901,0,1700.1V2400H1700z"/>
		</g>
		<g>
			<path style="fill:#DF8F54;" d="M1700,2400v-749.926c-11.633,0.219-23.288,0.321-34.903-0.22
				c-36.781-1.711-72.848-9.725-109.505-12.919c-46.494-4.052-92.999-7.092-139.661-7.593c-7.078-0.076-14.162-0.194-21.23-0.565
				c-16.044-0.842-31.33-6.542-47.025-8.529c-29.298-3.711-59.14-1.92-88.343-7.706c-19.749-3.913-39.9-6.05-58.894-13.293
				c-13.129-5.006-26.095-10.356-40.389-11.019c-13.081-0.607-26.414-0.119-39.164-2.605c-28.035-5.468-56.701-5.958-84.611-12.232
				c-16.83-3.783-34.316-5.024-49.207-15.177c-8.411-5.735-17.562-8.507-27.837-8.173c-7.513,0.245-14.839-1.774-21.674-4.976
				c-22.493-10.538-44.285-22.654-66.731-33.118c-25.211-11.752-52.869-16.956-80.24-21.622
				c-17.42-2.969-32.792-10.887-48.741-17.559c-20.049-8.386-42.35-10.405-61.07-22.652c-10.098-6.606-21.165-11.245-33.24-12.636
				c-25.807-2.971-51.371-7.342-75.604-17.036c-16.156-6.462-31.063-16.222-48.781-18.422c-8.522-1.058-16.239-4.102-22.908-9.636
				c-6.657-5.524-13.838-10.136-22.077-12.757c-17.91-5.697-35.535-12.059-52.111-21.152c-4.234-2.322-9.019-3.347-13.751-2.417
				c-8.849,1.739-17.05-0.776-25.535-2.619c-12.54-2.724-25.71-6.124-35.541,6.53c-6.271,8.071-13.442,10.464-24.048,10.087
				c-18.507-0.657-32.784,13.179-49.472,19.347c-5.911,2.185-11.065,6.086-17.739,3.998c-8.721-2.728-17.05-1.263-25.358,1.93
				c-4.389,1.688-8.99,3.357-13.722,1.17c-18.571-8.579-38.146-12.988-58.398-14.659c-23.247-1.918-43.355,5.735-59.827,21.975
				c-7.093,6.993-12.356,15.873-24.007,14.423c-6.482-0.807-13.01-1.513-19.153-4.026c-19.843-8.116-39.168-17.544-59.502-24.428
				V2400H1700z"/>
		</g>
		<g>
			<path style="fill:#DC864C;" d="M1700,2400v-943.73c-1.109,0.737-2.208,1.546-3.268,2.127
				c-14.913,8.173-29.405,17.524-47.694,14.732c-2.958-0.452-6.291,0.421-9.247,1.349c-18.66,5.857-35.722,15.163-55.358,19.817
				c-31.373,7.435-62.809,14.481-94.635,17.707c-31.044,3.147-60.353,12.482-90.336,19.484c-15.083,3.522-29.954,8.084-45.69,5.084
				c-10.312-1.966-20.714-4.377-31.179-2.886c-13.891,1.98-27.743,1.998-41.551,0.427c-10.963-1.248-21.156-0.064-29.59,7.376
				c-16.188,14.282-35.042,22.571-55.433,28.737c-14.953,4.521-28.074,13.746-41.457,21.886
				c-21.995,13.377-46.006,17.954-71.229,21.376c-27.241,3.696-54.422,6.954-81.82,8.814c-15.774,1.071-31.644,1.609-46.944,6.496
				c-21.817,6.969-43.166,15.834-66.865,14.364c-13.285-0.824-25.963,2.451-37.753,9.077c-16.32,9.172-32.947,17.848-51.642,20.763
				c-18.436,2.874-35.933,8.283-52.465,17.072c-17.283,9.189-35.259,16.514-54.908,18.322c-15.703,1.445-30.874,4.519-44.561,12.892
				c-21.19,12.962-42.699,23.908-68.843,17.638c-9.651-2.314-18.25,2.448-26.204,7.628c-17.692,11.522-37.604,13.661-57.909,14.971
				c-35.803,2.31-71.545,5.675-107.365,7.576c-22.945,1.218-45.82,0.137-68.941,2.672c-34.627,3.796-69.888,0.294-104.369,8.412
				c-18.802,4.427-38.746,3.632-56.787,11.637c-22.061,9.788-44.683,16.18-68.993,16.981c-14.441,0.476-28.939,2.379-42.976,6.663
				c-15.123,4.616-29.436,11.295-43.989,17.357V2400H1700z"/>
		</g>
		<g>
			<path style="fill:#E39D5F;" d="M1700,2400v-792.665c-6.356,0.845-12.714,1.674-19.059,2.595
				c-23.627,3.427-47.221,5.01-71.189,3.254c-20.029-1.468-40.218-1.964-59.844,5.388c-15.642,5.859-31.51,11.587-48.964,8.542
				c-11.316-1.974-22.786-3.674-34.357-3.139c-20.008,0.925-40.001,2.191-60.012,3.032c-21.931,0.922-43.58-2.619-65.36-4.26
				c-35.635-2.685-71.101,2.34-106.399,7.281c-17.855,2.499-35.319,7.436-53.556,7.652c-40.508,0.479-80.941-2.3-121.462-2.292
				c-25.394,0.005-50.894-3.447-76.407-4.349c-12.443-0.44-24.889-0.965-37.337-1.06c-23.835-0.181-47.592-3.542-71.49-1.474
				c-13.429,1.162-27.103,3.523-40.326,2.093c-22.228-2.403-42.132,1.895-62.268,11.505c-24.697,11.787-47.983,26.436-77.373,27.868
				c-22.574,1.1-45.037,6.241-68.057,5.339c-9.38-0.368-18.843,2.814-28.331,3.649c-17.228,1.516-34.148-2.823-51.253-3.432
				c-11.756-0.419-22.642-2.908-31.143-11.086c-15.326-14.743-32.864-22.751-54.213-23.352c-14.392-0.405-28.05-5.436-39.028-15.055
				c-24.65-21.599-54.668-29.424-85.381-35.582c-21.392-4.289-32.041,13.915-45.27,24.789c-9.905,8.143-17.911,18.389-30.621,22.722
				c-17.352,5.915-33.763,14.255-51.253,20.001c-12.452,4.091-24.575,10.297-37.646,10.483c-28.005,0.398-55.108,5.485-82.25,11.789
				c-9.452,2.195-19.812,1.872-29.628-0.514c-19.967-4.854-39.957-8.772-60.522-7.482V2400H1700z"/>
		</g>
		<g>
			<path style="fill:#DA9054;" d="M1700,2400v-729.016c-3.841-0.026-7.697-0.397-11.546-0.539
				c-17.371-0.642-34.622-4.483-52.062-2.589c-9.852,1.07-19.542,3.683-29.395,4.735c-26.142,2.793-52.296,5.386-78.139,10.455
				c-22.112,4.337-44.234,5.989-66.641,1.772c-9.443-1.777-19.1-3.331-28.773-0.223c-14.035,4.51-28.386,5.504-43.075,4.114
				c-18.856-1.784-37.683-1.868-56.082,4c-11.463,3.656-23.131,4.291-34.917,1.609c-16.016-3.645-31.53-3.568-46.59,4.578
				c-4.692,2.538-10.513,3.129-15.907,4.095c-17.186,3.079-34.559,1.087-51.842,1.656c-8.977,0.296-17.639,1.913-25.935,5.597
				c-9.569,4.249-18.438,10.966-29.086,11.7c-29.039,2.002-57.985,2.152-86.801,9.171c-29.152,7.101-58.732-2.278-88.121-4.444
				c-18.483-1.362-36.873-5.358-55.499-1.376c-19.561,4.182-38.894,10.187-59.237,8.754c-15.919-1.122-31.816-2.566-47.723-3.86
				c-21.558-1.753-41.879,1.881-61.977,10.745c-26.128,11.523-55.563,11.925-82.062,22.786
				c-23.868,9.783-49.716,13.11-73.504,23.061c-25.84,10.809-53.502,12.094-80.598,15.951c-22.653,3.224-45.575-0.593-68.392-0.003
				c-6.999,0.181-14.252-0.421-21.025-2.139c-40.086-10.167-80.611-8.634-121.109-4.616c-32.943,3.268-65.805,7.226-98.907,8.674
				c-15.956,0.698-31.766,2.757-47.227,7.219c-21.749,6.277-43.279,13.783-66.506,11.938c-7.948-0.632-15.973-0.412-23.961-0.367
				c-16.269,0.092-31.674,5.114-47.361,8.544V2400H1700z"/>
		</g>
		<g>
			<path style="fill:#D1824C;" d="M1700,2400v-693.687c-11.298,1.155-22.645,3.279-33.955-0.003
				c-15.672-4.548-31.614-5.941-47.823-4.601c-22.955,1.897-45.754,0.958-68.427-3.397c-10.766-2.068-21.517-4.284-32.674-3.016
				c-17.313,1.967-34.65,3.295-52.024,0.122c-32.897-6.008-65.977-10.514-99.501-9.209c-10.055,0.391-20.099,2.408-30.172,1.159
				c-11.831-1.468-23.244,0.363-34.504,3.588c-19.977,5.721-38.597,15.225-58.172,21.978c-28.565,9.854-55.695,22.545-81.682,38.014
				c-9.342,5.561-18.736,13.966-29.36,13.61c-19.895-0.666-35.91,7.927-52.61,16.371c-27.823,14.069-56.396,26.459-86.633,34.2
				c-10.727,2.746-22.494,2.134-32.702,5.999c-31.946,12.097-62.207,28.199-93.024,42.946c-12.094,5.788-22.326,15.396-36.34,17.312
				c-7.265,0.993-14.621-0.633-21.842,1.853c-21.549,7.421-42.086,17.881-64.553,22.509c-10.309,2.123-20.469,7.933-31.326,2.489
				c-6.222-3.12-12.414-6.354-18.36-9.975c-17.147-10.442-34.896-19.077-55.381-19.688c-14.818-0.443-28.732-4.189-41.689-11.373
				c-28.137-15.6-56.616-31.03-88.213-37.423c-35.549-7.192-68.66-21.822-103.327-31.53c-24.892-6.97-45.854-21.821-68.027-34.446
				c-35.09-19.979-71.649-37.048-110.052-49.564c-18.392-5.994-37.031-11.214-56.017-15.144
				c-12.788-2.647-26.015-2.958-38.435-7.525c-10.208-3.754-20.295-7.959-30.712-10.985c-18.802-5.461-37.822-10.041-52.903-24.004
				c-3.623-3.355-7.917-6.298-12.391-8.311c-11.996-5.398-25.104-7.894-37.169-13.143V2400H1700z"/>
		</g>
		<g>
			<path style="fill:#523627;" d="M1700,2400v-859.21c-0.169,0.07-0.333,0.152-0.503,0.219
				c-38.607,15.319-77.302,30.41-115.814,45.968c-10.118,4.087-20.035,8.646-30.488,11.847c-10.131,3.102-19.051,8.536-24.45,17.781
				c-7.535,12.9-18.832,19.238-32.452,23.262c-15.012,4.435-28.337,11.834-37.405,25.602c-4.229,6.422-11.266,9.014-18.06,11.507
				c-13.578,4.982-24.224,13.763-32.47,25.55c-4.988,7.129-11.299,12.094-19.464,14.804c-7.79,2.586-13.991,7.241-17.783,14.806
				c-2.155,4.299-5.423,6.132-10.267,5.495c-13.874-1.824-25.557,3.219-34.668,13.392c-15.452,17.255-33.768,28.805-56.179,34.826
				c-15.46,4.153-29.745,12.25-43.282,20.881c-23.423,14.935-49.669,20.178-76.149,25.18c-9.917,1.874-19.831,3.866-29.364,7.408
				c-8.292,3.081-15.315,7.524-18.962,16.214c-2.817,6.713-9.353,6.7-14.997,7.829c-6.286,1.258-12.77,2.769-17.411,6.961
				c-11.688,10.557-25.894,14.749-40.3,19.448c-20.834,6.795-38.171,19.48-51.67,37.074c-16.221,21.142-36.758,36.6-60.077,48.744
				c-18.556,9.664-34.898,22.58-50.707,36.322c-21.409,18.61-43.577,36.373-71.837,42.998c-10.78,2.527-22.065,2.919-33.144,4.032
				c-15.556,1.562-30.204,8.305-45.966,8.425c-31.105,0.237-62.273-0.978-93.302,0.638c-36.86,1.92-72.81,8.987-105.584,27.979
				c-4.787,2.774-11.167,2.589-16.669,4.254c-10.085,3.052-19.092,8.396-26.893,15.427c-7.014,6.321-14.875,7.527-23.478,5.761
				c-17.394-3.571-33.796-1.062-48.83,8.443c-19.951,12.613-42.73,14.108-64.916,18.759c-21.025,4.407-42.628,8.944-60.522,22.289
				c-14.333,10.689-31.381,11.024-47.575,15.005c-15.025,3.694-28.338,0.201-41.662-6.631c-19.184-9.837-38.795-7.932-57.895,0.311
				c-14.7,6.344-29.705,8.945-45.636,8.232c-27.859-1.248-55.636-0.478-83.169,3.969V2400H1700z"/>
		</g>
		<g>
			<path style="fill:#794C35;" d="M1700,2400v-397.896c-20.657-5.993-41.243-12.244-61.944-18.074
				c-23.788-6.7-47.332-14.391-72.467-14.865c-20.683-0.39-41.035,3.215-61.585,3.899c-18.886,0.628-37.899,0.445-56.346,4.78
				c-30.696,7.214-61.596,11.35-93.137,10.208c-22.097-0.8-43.974,1.616-65.791,4.917c-22.453,3.397-44.996,5.646-67.753,5.042
				c-21.533-0.57-42.794-3.975-64.165-6.2c-16.626-1.731-33.321-2.634-49.159-9.616c-24.338-10.729-50.02-17.806-75.721-24.029
				c-22.344-5.41-44.919-9.304-65.438-20.579c-10.745-5.904-21.989-10.784-34.012-13.445c-25.624-5.67-51.088-11.935-75.982-20.403
				c-11.524-3.92-22.224-10.312-34.609-11.658c-18.157-1.974-35.655,3.086-53.435,5.074c-11.393,1.274-22.04,1.318-32.482-5.398
				c-21.158-13.609-43.401-25.265-69.183-26.337c-20.668-0.86-37.044-9.899-51.313-24.428c-8.129-8.277-18.21-13.316-29.786-14.998
				c-9.201-1.337-18.671-1.845-27.504-4.494c-18.499-5.546-36.031-13.814-53.578-21.923c-18.736-8.659-37.388-18.099-58.266-19.673
				c-21.305-1.606-42.714-2.447-64.078-2.442c-28.136,0.006-56.218-0.941-83.453-8.221c-35.904-9.597-71.142-10.425-105.938,3.867
				c-16.673,6.848-32.743,8.871-48.535-2.346c-3.935-2.795-8.586-4.588-12.99-6.661c-20.91-9.843-42.079-15.828-64.651-5.134
				c-15.162,7.184-32.757,8.577-46.028,20.522c-3.347,3.012-8.659,3.473-13.419,4.054c-2.425,0.296-4.837,0.696-7.248,1.109V2400
				H1700z"/>
		</g>
		<g>
			<path style="fill:#20201E;" d="M1700,2400v-749.616c-0.726,0.151-1.462,0.149-2.214,0.143c-0.831-0.006-1.522-1.242-1.034-1.931
				c0.356-0.503,0.896-0.908,1.424-1.244c0.578-0.368,1.191-0.564,1.824-0.679v-2.239c-0.977,0.827-2.113,0.572-3.282,0.305
				c0.101-2.504,0.163-2.425,1.896-3.826c0.464-0.375,0.977-0.738,1.386-1.202v-3.835c-0.194-0.236-0.414-0.462-0.663-0.68
				c-1.105-0.966-1.56-1.925-0.444-3.331c0.532-0.671,0.513-1.922-0.503-2.372c-2.286-1.012-2.181-2.324-0.95-4.174
				c0.251-0.378,0.711-1.688-0.914-2.053c-1.295-0.292-1.722-1.445-1.072-3.099c1.42-3.617-0.251-6.639-2.417-9.484
				c0.218,2.924-1.554,5.531-1.042,8.429c0.069,0.393-0.016,1.02-0.368,0.998c-1.587-0.097-1.174,1.025-1.194,1.866
				c-0.028,1.198,0.057,2.402-0.027,3.594c-0.071,1.01,0.212,1.772,0.994,2.395c0.41,0.327,0.8,0.707,1.11,1.129
				c0.644,0.877,0.167,2.652-0.855,2.972c-0.598,0.187-1.289,0.103-1.936,0.077c-0.454-0.019-0.791,0.157-0.849,0.566
				c-0.075,0.527-0.021,1.126,0.753,1.032c0.501-0.061,0.682,0.315,0.953,0.571c0.896,0.844,0.706,1.92-0.396,2.498
				c-0.764,0.4-1.163-0.099-1.633-0.554c-0.521-0.505-0.937-1.377-1.898-0.674c-0.822,0.601-1.403,1.641-0.886,2.351
				c1.066,1.463,0.955,3.089,0.636,4.491c-0.471,2.068,1.622,2.869,1.663,4.553c0.003,0.133,0.025,0.272-0.004,0.399
				c-0.205,0.898,0.226,1.495,0.859,2.044c0.497,0.432,1.048,0.869,1.362,1.427c0.229,0.406,0.206,1.03,0.123,1.527
				c-0.116,0.692-0.737,0.52-1.234,0.569c-1.501,0.15-2.62-0.662-3.729-1.485c-0.502-0.372-0.868-1.231-1.579-0.887
				c-1.091,0.527-0.509,1.662-0.457,2.475c0.033,0.522,0.699,1.03,1.135,1.492c0.41,0.434,0.576,0.917,0.177,1.356
				c-0.406,0.447-0.838,0.188-1.344-0.075c-0.913-0.474-2.454,0.062-2.35,0.763c0.333,2.242-0.986,4.663,1.034,6.784
				c0.833,0.875,1.062,2.499,1.223,3.825c0.141,1.161-1.124,1.673-1.826,2.383c-0.877,0.887-1.266,1.774-1.334,3.075
				c-0.09,1.726-1.06,1.993-2.808,1.074c-0.209-0.11-0.603,0.035-0.732-0.107c-0.642-0.701-1.741-1.142-0.633-2.54
				c0.609-0.769,0.556-2.058-0.242-3.234c-0.647-0.954-1.33-2.138-1.063-3.545c0.174-0.915-0.659-1.365-1.288-1.751
				c-0.717-0.44-1.985,0.301-1.774,1.116c0.351,1.357-0.949,2.083-0.867,3.283c0.081,1.193,0.045,2.397,0.005,3.594
				c-0.016,0.495,0.183,1.006-0.271,1.487c-1.694,1.795-1.251,4.078-1.287,6.243c-0.007,0.406-0.034,0.779-0.607,1.175h-3.301
				c-0.159,2.262,0.421,4.567-1.307,6.352c-0.642,0.664-0.21,1.511-0.291,2.269c-0.07,0.658,0.089,1.351-0.038,1.991
				c-0.197,0.992-1.756,1.505-2.387,0.743c-1.168-1.41-2.461-2.309-4.36-1.905c-0.585,0.125-0.902-0.323-1.34-0.588
				c-1.028-0.623-0.079-1.902-0.84-2.443c-0.682-0.485-1.826,0.17-2.405-0.87c-0.183-0.329-0.476-0.551-0.475-1.007
				c0.005-2.078-1.538-2.888-3.097-3.38c-1.897-0.599-3.401-1.627-4.622-3.156c-0.361-0.452-0.776-0.673-1.398-0.491
				c-0.658,0.617-0.353,1.483-0.288,2.208c0.128,1.426-0.815,2.351-1.368,3.436c-0.386,0.757-1.252,1.18-1.841,0.234
				c-1.315-2.11-4.307-1.711-5.51-3.934c-0.305-0.563-0.906-0.387-1.407-0.393c-1.027-0.011-2.055-0.003-3.289-0.003
				c0.08-1.433-0.333-2.7,0.321-3.935c1.853,0.097,1.138-1.323,1.226-2.208c0.138-1.385-0.357-2.865,0.775-4.089
				c0.197-0.213,0.19-0.995,0.002-1.136c-1.24-0.926-0.512-2.632-1.711-3.759c-1.182-1.111-2.444-0.531-3.64-1.052
				c-0.113-0.983-0.509-2.068,0.233-2.923c0.633-0.729,0.603-1.613,0.366-2.214c-1.028-2.603-1.44-5.298-1.856-8.042
				c-0.122-0.804-0.387-1.701-0.435-2.574c-0.026-0.477-0.209-0.799-0.611-0.803c-0.335-0.004-0.71,0.198-1,0.405
				c-0.549,0.393-0.87,0.903-0.787,1.667c0.144,1.33,0.023,2.503-1.138,3.534c-1.459,1.295,0.676,2.515,0.368,3.863
				c-0.029,0.126,0.052,0.337-0.012,0.388c-1.323,1.067-1.802,2.46-1.599,4.13c-2.096,1.312-1.556,3.434-1.508,5.344
				c0.024,0.946-0.443,1.439-0.995,1.997c-1.044,1.054-0.852,2.048,0.159,3.012c0.67,0.638,1.272,1.352,1.963,1.963
				c0.608,0.537,0.639,1.486,0.363,1.783c-1.246,1.337-0.424,3.012-0.938,4.65c-1.128,0-2.284-0.014-3.439,0.003
				c-2.022,0.029-2.316,0.376-1.601,2.21c0.177,0.453,0.57,0.799,0.522,1.383c-0.19,2.347-0.022,4.588,1.517,6.569
				c0.262,0.338,0.372,1.457-0.345,1.745c-0.504,0.203-1.263,0.344-1.834-0.181c-0.646-0.595-1.121-1.341-2.169-1.485
				c-0.496-0.068-0.909-0.982-1.621-0.511c-0.421,0.279-1.071,0.817-1.013,1.123c0.312,1.662-0.796,2.542-1.819,3.228
				c-1.092,0.733,0.03,2.434-1.124,2.634c-2.21,0.383-0.965,1.999-0.949,2.811c0.032,1.566-1.032,2.276-1.604,3.377
				c-0.325,0.626-0.353,1.069-1.183,1.099c-0.76,0.028-1.17-0.362-1.658-0.813c-0.595-0.549-0.272-1.228-0.398-1.84
				c-0.145-0.702-0.727-0.578-1.231-0.577c-0.518,0.001-1.118-0.072-1.109,0.696c0.009,0.771-0.084,1.642,0.226,2.295
				c2.213,4.663,2.242,4.649,2.125,8.299c-0.049,1.543-0.698,1.943-2.195,1.246c-0.776-0.362-1.426-1.047-2.221-1.304
				c-0.888-0.287-1.743-0.012-2.395,0.843c-0.744,0.977-0.024,1.473,0.553,1.923c0.886,0.691,1.305,1.88,2.709,2.09
				c0.716,0.107,1.293,1.087,1.221,2.214c-0.128,1.989-0.043,3.993-0.033,5.991c0.006,1.203-0.594,2.349-1.448,2.786
				c-0.903,0.461-1.406-0.91-2.046-1.501c-0.325-0.3-0.303-0.963-0.603-1.319c-0.483-0.574-0.924-1.257-1.91-1.1
				c-1.718,0.272-3.129-0.479-4.536-1.427c-1.1-0.741-2.375-1.245-3.623-1.713c-0.398-0.149-1.138-0.331-1.422,0.238
				c-0.214,0.427-0.171,1.012-0.149,1.522c0.009,0.213,0.253,0.42,0.398,0.623c1.622,2.26,4.206,3.388,6.123,5.324
				c0.729,0.736,2.009,0.093,3.024,0.257c0.226,0.037,0.457,0.198,0.635,0.359c0.478,0.433,1.111,0.874,0.791,1.63
				c-0.248,0.583-0.909,0.456-1.391,0.378c-0.964-0.157-1.905-1.493-2.775-0.719c-1.193,1.062-2.454,0.779-3.663,0.693
				c-2.166-0.154-3.282,0.932-4.073,2.663c1.153,1.399,2.621,2.268,2.688,4.29c0.035,1.048,1.476,1.332,2.341,0.437
				c1.069-1.106,2.281-1.252,3.482-0.738c0.574,0.246,1.062,0.555,1.729,0.609c1.248,0.101,1.727,0.919,1.708,2.153
				c-0.032,2.13-0.014,4.262-0.004,6.393c0.002,0.411-0.049,0.974-0.412,0.983c-1.153,0.027-1.911,1.199-3.23,0.893
				c-1.03-0.239-1.51-0.741-1.889-1.633c-0.971-2.285-1.972-4.505-5.138-4.146c-0.292,0.033-1.317-0.531-1.891-1.017
				c-0.964-0.816-1.831-0.682-2.697,0.217c-0.883,0.916-1.615,2.027-3.24,1.821c-0.401-0.051-1.422,0.816-1.18,1.768
				c0.277,1.087,2.598,2.633,3.326,2.08c2.313-1.756,3.741-0.468,5.256,1.147c0.396,0.422,1.149,0.487,1.585,0.887
				c1.325,1.219,2.5,2.549,2.423,4.568c-0.067,1.757-0.688,2.171-2.574,1.636c-0.994-0.282-2.042-0.484-2.905,0.198
				c-1.28,1.012-2.126,0.371-2.987-0.574c-0.445-0.489-0.876-1.019-1.412-1.381c-0.232-0.157-1.026-0.187-1.001,0.246
				c0.107,1.856-1.23,2.75-2.269,3.863c-0.524,0.562-0.425,1.421-0.165,1.841c0.455,0.736,1.346,0.514,2.068,0.2
				c0.224-0.097,0.412-0.339,0.557-0.555c0.951-1.414,2.39-0.806,3.601-0.779c0.922,0.021,1.302,0.863,1.654,1.823
				c0.318,0.867,1.216,1.595,2.147,2.144c1.597,0.943,2.342,2.129,1.619,3.304c-0.936,1.522-0.722,3.014-0.662,4.516
				c0.071,1.782-1.115,2.511-2.253,3.316c-0.303,0.215-0.866-0.046-0.91-0.441c-0.086-0.781-0.325-1.875,0.069-2.326
				c1.814-2.071,0.133-3.188-1.111-4.142c-1.576-1.21-3.325-2.389-5.526-1.851c-1.524,0.373-2.853-0.57-4.68-0.955
				c0.448,1.62-0.408,3.11,0.609,4.081c1.425,1.361,2.318,3.636,4.952,3.302c0.99-0.126,1.781,0.694,1.668,1.705
				c-0.135,1.21-1.245,0.488-1.913,0.63c-0.343,0.073-0.705-0.079-1.08-0.21c-2.462-0.864-2.476-0.824-2.473,1.721
				c0.003,2.696-0.004,2.733,2.954,3.274c0.576,0.105,0.883,0.614,1.291,0.686c1.096,0.193,2.167,0.416,3.228-0.563
				c1.361-1.256,2.585-0.718,2.76,1.011c0.054,0.527-0.046,1.072,0.019,1.596c0.15,1.204-0.878,1.992-0.939,3.259
				c-0.064,1.329,1.414,2.231,0.818,3.476c-1.49,0.518-2.839-0.109-4.256,0.798c-1.331,0.852-2.843-0.162-3.998-1.461
				c-1.104-1.242-2.539-1.036-3.21,0.174c-0.662,1.196-0.175,2.93,1.136,4.044c1.4,1.189,1.295,1.72-0.196,3.031
				c-1.613,1.419-2.867,3.29-5.206,3.695c-0.409,0.071-0.828,0.639-0.702,1.263c0.145,0.721,0.707,0.647,1.211,0.594
				c0.806-0.084,1.2,0.18,1.163,1.073c-0.05,1.172-0.012,2.347-0.012,3.445c-1.073,0.417-1.789,0.348-2.637-0.298
				c-0.699-0.532-1.831-0.526-2.346,0.48c-0.718,1.401-1.664,2.575-2.81,3.611c0.333,2.193-1.007,2.222-2.56,2.104
				c-0.748-0.057-0.712,0.603-0.667,1.124c0.032,0.37,0.159,0.731,0.23,1.098c0.314,1.635,2.921,2.619,1.975,4.211
				c-0.727,1.222-2.387,2.115-3.525,3.277c-0.982,1.003-2.242,1.811-1.887,3.628c0.151,0.772-1.253,1.492-1.903,1.001
				c-0.706-0.534-1.133-1.204-1.284-2.261c-0.213-1.493-1.408-2.197-2.459-1.662c-0.949,0.483-2.282,1.199-0.768,2.591
				c0.307,2.966,0.725,3.865-2.691,5.48c-0.434,0.205-0.8,0.961-1.28,0.639c-1.139-0.765-2.75-1.025-3.326-2.397
				c-0.579-1.382-1.37-2.286-2.768-2.798c-0.552-0.202-1.241-1.017-0.727-1.569c1.532-1.644,0.313-2.276-0.911-2.762
				c-1.553-0.616-1.563-1.817-1.552-3.161c0.006-0.656,0.655-0.823,0.782-1.274c0.429-1.518-0.415-3.475-1.457-3.586
				c-0.66-0.07-1.571,1.497-1.657,3.006c-0.08,1.399-0.012,2.729-0.708,4.111c-0.478,0.951-0.536,2.638,0.001,3.489
				c1.124,1.782,0.45,3.482,0.762,5.378c-1.466,0-2.628,0.031-3.788-0.01c-0.951-0.033-1.756,0.814-1.707,1.281
				c0.195,1.879-0.921,3.539-0.806,5.267c0.208,3.116-0.209,5.659-3.456,6.926c-0.448,0.175-0.774,0.708-1.119,1.107
				c-0.36,0.417-0.74,0.704-1.33,0.616c-1.648-0.246-2.999,0.229-4.116,1.557c-0.222,0.264-1.037,0.109-1.072-0.661
				c-0.018-0.399-0.174-0.985,0.022-1.171c2.664-2.523,0.837-6.179,2.27-9.059c0.714-1.436-0.585-2.855-1.071-4.278
				c-0.652-1.909-0.999-3.751-3.745-3.261c-0.675,0.12-1.888-0.963-1.33-1.911c1.505-2.555,0.639-4.958-0.12-7.367
				c-0.424-1.344-0.766-2.632-0.807-4.073c-0.051-1.76-1.053-3.397-0.811-5.274c0.046-0.358-0.802-0.965-1.345-1.234
				c-0.547-0.271-0.998,0.277-1.243,0.701c-0.49,0.847-1.226,1.779-1.197,2.653c0.052,1.528-0.545,2.503-1.611,3.354
				c-0.95,0.758-1.286,1.774-0.512,2.694c0.629,0.748,0.366,1.476,0.465,2.22c0.113,0.84-0.245,1.287-1.082,1.116
				c-0.981-0.2-1.461,0.499-1.909,1.093c-0.516,0.684,0.27,1.096,0.495,1.648c0.346,0.848,0.302,1.779-0.608,2.435
				c-0.988,0.712-1.077,1.61-0.566,2.729c0.824,1.805,1.363,3.561-1.145,4.635c-1.019,0.437-0.805,1.505-0.545,2.41
				c0.494,1.72,1.779,2.634,3.284,3.359c0.515,0.248,0.706,0.843,0.413,1.333c-0.308,0.517-0.839,0.503-1.321,0.12
				c-1.69-1.342-3.544-1.777-5.715-1.093c0.09,0.425,0.078,0.833,0.255,1.124c0.885,1.452,1.086,3.136-0.03,4.272
				c-1.381,1.405-1.368,3.127-0.773,4.321c0.597,1.197,0.414,2.251,0.577,3.365c0.145,0.992-0.254,1.993,0.616,2.971
				c0.533,0.599,0.302,1.656-0.522,2.416c-0.917,0.845-1.253-0.35-1.85-0.475c-0.913-0.191-1.788-1.227-2.737-0.452
				c-0.958,0.782-2.082,1.54-1.849,3.218c0.193,1.394,0.305,2.911-1.231,3.87c-0.667,0.416-0.121,1.25-0.312,1.851
				c-0.237,0.744-1.798,0.031-1.54,1.266c0.395,1.889-1.026,3.436-0.821,5.269c0.059,0.527,0.033,1.128-0.737,1.061
				c-0.574-0.05-1.417,0.385-1.597-0.584c-0.183-0.986-0.931-1.682-0.897-2.864c0.047-1.633-1.374-2.963-2.894-2.88
				c-1.719,0.094-3.169-0.713-4.676-1.18c-0.722-0.224-1.418-0.432-2.159-0.461c-1.021-0.039-1.69,0.916-1.186,1.777
				c0.386,0.66,0.944,1.249,1.527,1.747c0.454,0.387,1.097,0.537,1.6,0.877c2.631,1.773,3.344,5.275,6.074,6.976
				c0.156,0.097,0.213,0.453,0.217,0.69c0.02,1.332,0.022,2.664,0.005,3.995c-0.01,0.774-0.625,0.845-1.095,0.686
				c-1.727-0.583-3.444-1.21-5.115-1.938c-0.384-0.167-0.933-0.549-0.875-1.199c0.189-2.129-1.791-2.731-2.806-3.996
				c-0.213-0.266-0.923-0.115-1.154,0.595c-0.649,1.994-0.719,2.061-2.258,1.386c-0.475-0.209-0.882-0.44-1.406-0.421
				c-0.529,0.02-1.051-0.011-1.048,0.777c0.011,3.241-1.359,6.374-0.777,9.657c0.567,3.195-0.544,5.61-3.088,7.509
				c-1.593,1.189-2.323,2.595-1.098,4.669c0.965,1.633,0.135,3.646-1.048,4.439c-1.667,1.117-1.817,2.407-1.885,4.047
				c-0.043,1.032,0.38,2.139-0.218,3.094c-1.712,2.737-2.344,5.767-2.183,8.965c-2.017,0-3.831,0.363-5.387-0.122
				c-1.109-0.346-2.461-0.309-3.424-1.251c-0.505-0.494-1.538-0.445-1.785-0.11c-1.36,1.845-3.921,1.808-5.264,3.621
				c-0.311,0.42-0.788,0.749-0.613,1.336c0.196,0.656,0.881,0.342,1.266,0.555c1.314,0.725,1.947-1.36,3.448-0.578
				c0,1.159,0.03,2.461-0.007,3.76c-0.049,1.694-0.432,2.223-2.282,2.326c-1.189,0.066-2.062,0.394-2.389,1.491
				c-0.163,0.546-0.426,0.902-0.759,1.286c-0.725,0.835-1.26,0.437-1.924-0.159c-0.602-0.539-0.59-1.161-0.5-1.793
				c0.205-1.452-0.654-2.332-1.311-3.474c-0.636-1.105-0.298-2.783-0.407-4.208c-0.008-0.101-0.178-0.186-0.267-0.284
				c-1.433-1.581-3.095-2.589-5.325-2.408c-2.005,0.163-2.535,1.793-3.384,3.195c-0.306,0.505-0.375,0.954-0.339,1.457
				c0.058,0.815-0.564,1.18-1.033,1.557c-2.249,1.811-2.529,2.492-1.815,4.91c1.124,3.806-0.249,5.777-3.951,5.674
				c-2.23-0.063-3.475-1.214-2.53-3.122c0.97-1.959-0.219-3.378-0.293-4.994c-0.046-1.007-0.538-2.782-2.304-3.102
				c-0.754-0.137-1.583-0.76-1.433-1.565c0.474-2.542-0.792-4.455-2.036-6.356c-0.421-0.643-0.349-1.225-0.364-1.85
				c-0.032-1.331,0.012-2.664-0.016-3.995c-0.029-1.407-1.147-2.011-2.243-1.036c-1.519,1.351-3.426,2.102-4.908,3.402
				c-1.899,1.665-3.857,2.196-6.146,1.677c-0.506-3.511,0.604-5.828,3.838-7.058c2.423-0.922,2.87-3.799,4.703-5.384
				c0.582-0.503-0.21-1.673-1.158-1.769c-0.519-0.053-1.086,0.113-1.565-0.038c-2.73-0.858-3.222-2.342-2-5.23
				c0.435-1.029,0.904-2.015,1.419-3.004c0.663-1.272-0.199-2.779-1.478-2.923c-0.666-0.075-1.156,0.304-1.74,0.563
				c-1.675,0.745-2.262,0.102-2.151-1.76c0.047-0.783,0.415-1.187,0.871-1.647c1.21-1.221,2.411-2.452,3.624-3.67
				c0.564-0.566,0.39-1.353,0.21-1.861c-0.26-0.733-1.152-0.458-1.743-0.377c-0.444,0.061-0.828,0.696-1.256,0.717
				c-0.986,0.048-2.1,0.38-2.836-0.737c-0.63-0.956-0.662-2.082-0.201-2.935c0.589-1.089,1.158-2.22,2.134-3.132
				c1.325-1.238,1.245-2.84-0.405-3.398c-1.386-0.469-1.173-1.145-1.127-1.965c0.157-2.795-0.009-5.454-2.381-7.399
				c0.338-1.037-1.085-1.391-0.905-2.447c0.061-0.357-0.683-0.449-0.985-0.301c-1.95,0.956-2.486,2.705-1.562,4.869
				c0.193,0.452,0.361,0.914,0.56,1.363c0.779,1.758,0.666,2.379-0.612,3.294c-2.315,1.658-2.316,1.659-0.447,3.624
				c0.365,0.383,0.725,0.774,1.117,1.127c0.816,0.734,0.517,1.336-0.165,1.937c-0.489,0.431-0.925,1.237-1.426,1.273
				c-0.966,0.069-1.626,0.718-1.787,1.291c-0.222,0.794-0.19,1.742,0.147,2.669c0.744,2.049,0.771,2.297-1.025,3.232
				c-1.293,0.673-0.955,1.614-0.587,2.169c0.719,1.084,1.818,1.904,2.719,2.872c1.309,1.407,2.295,4.083,1.645,4.318
				c-1.44,0.519-2.853,0.583-4.325-0.426c-0.955-0.655-2.216-1.22-3.571-0.885c-0.476,0.118-1.229-0.148-1.341,0.441
				c-0.109,0.572-0.341,1.307,0.234,1.868c1.543,1.502,2.807,3.327,5.189,3.729c0.82,0.138,2.163,0.413,1.625,2
				c-0.247,0.731-2.024,1.23-2.92,0.545c-0.802-0.613-1.519-1.27-2.478-1.68c-1.899-0.812-2.316-0.736-3.276,1.075
				c-0.798,1.504-1.289,2.864-0.093,4.595c0.616,0.892,1.36,2.09,0.365,3.813c-0.812,1.407-0.656,3.569,0.902,5.403
				c1.276,1.503,2.35,3.571,1.993,5.917c-0.192,1.26,0.166,2.318,1.577,2.679c1.258,0.322,0.915,1.017,0.304,1.65
				c-0.984,1.018-1.901,1.04-2.952,0.062c-1.214-1.13-2.242-2.473-3.855-3.108c-1.472-0.579-2.105-0.198-2.191,1.328
				c-0.087,1.565,0.59,3.369-0.31,4.635c-0.819,1.152-2.365,1.774-3.6,2.616c-0.09,0.062-0.308-0.049-0.381,0.017
				c-0.688,0.623-0.628,1.487-0.254,2.118c1.524,2.571,1.703,2.598,0.89,4.325c-0.438,0.93-0.557,2.198-0.192,2.607
				c0.963,1.08,0.652,2.213,0.682,3.342c0.016,0.578,0.145,0.994,0.583,1.366c1.572,1.332,1.191,2.981,0.622,4.6
				c-1,2.844-2.427,5.554-2.008,8.766c0.166,1.275-1.171,2.924-2.255,3.236c-1.347,0.387-2.338-0.175-3.223-1.828
				c-0.524-0.978-1.191-1.909-1.524-2.951c-0.212-0.662-0.482-0.88-1.035-0.801c-0.714,0.103-0.586,0.706-0.595,1.22
				c-0.038,2.196,0.489,4.516-1.941,6.013c-0.838,0.516-0.551,1.516-0.007,2.417c0.631,1.047,1.544,2.151,1.132,3.49
				c-0.446,1.452,1.028,2.289,0.856,3.679c-0.304,2.456-0.579,5.126-2.935,6.22c-1.589,0.738-1.219,1.588-0.742,2.293
				c0.38,0.561,0.242,1.299,0.766,1.691c0.804,0.602,0.731,1.601,0.406,2.132c-0.553,0.902-1.686,0.361-2.545,0.341
				c-0.39-0.009-0.73-0.698-1.153-0.986c-1.415-0.964-2.151-0.756-3.477,0.825c-0.811,0.967-1.575,1.277-3,0.717
				c-1.725-0.677-2.39-2.744-4.323-2.925c-1.636-2.526-5.491-3.479-5.129-7.453c0.024-0.268-0.422-0.652-0.729-0.866
				c-1.236-0.859-1.15-2.339-0.72-3.219c1.65-3.373,0.659-6.118-1.94-8.136c-1.471-1.142-0.971-2.856-2.027-4.035
				c-0.508-0.567,1.203-2.271,1.863-1.769c0.944,0.718,1.912,1.292,2.672,0.344c0.692-0.863-1.072-1.657-0.668-2.789
				c0.171-0.479-0.256-0.728-0.54-0.96c-1.889-1.545-3.163-3.71-5.479-4.887c-2.124-1.079-2.274-2.078-1.413-4.574
				c0.711-2.062,0.579-3.744-1.201-5.215c-0.651-0.538-1.613-0.991-1.599-2.103c0.023-1.921-0.24-3.867,0.763-5.675
				c0.325-0.586,1.363-1.02,0.443-2.2c-1.323,0.25-2.881-0.491-4.311,0.393c-2.404,1.486-5.326,1.777-7.65,3.531
				c-0.428,0.323-1.129,1.028-1.97,0.898c-0.49-0.076-1.158,0.205-1.391-0.386c-0.181-0.46-0.156-1.069-0.031-1.562
				c0.085-0.335,0.544-0.553,0.761-0.875c1.281-1.903,3.469-2.44,5.273-3.521c0.91-0.545,1.901-0.805,1.797-2.085
				c-0.169-2.068,0.198-3.793,1.943-5.218c1.034-0.844,0.399-2.75-0.897-3.112c-0.61-0.17-1.339,0.106-1.956-0.053
				c-2.482-0.64-4.564-3.142-3.689-4.893c0.607-1.213,0.32-2.741,1.617-3.782c0.775-0.623,1.836-1.834,1.08-3.199
				c-0.827-1.493-2.344-0.687-3.559-0.895c-0.487-0.083-0.648,0.354-0.97,0.53c-0.855,0.468-1.71,0.552-2.401-0.312
				c-0.545-0.682-1.553-1.069-1.39-2.26c2.154-1.784,3.65-4.371,6.337-5.63c0.559-0.262,1.014-0.86,1.39-1.394
				c0.61-0.867-0.057-1.988-1.083-2.136c-1.613-0.232-2.908,0.469-4.263,1.167c-1.431,0.737-3.022,0.325-3.135-0.84
				c-0.252-2.581-0.016-5.154,1.726-7.231c0.627-0.747,1.162-1.73,2.365-1.892c0.969-0.131,0.53-1.024,0.585-1.605
				c0.073-0.782-0.511-0.764-1.039-0.765c-1.182-0.002-2.364-0.018-3.545,0.009c-0.431,0.01-0.793-0.11-0.9-0.515
				c-0.096-0.366-0.053-0.777,0.327-1.049c1.366-0.976,1.897-2.678,0.971-3.724c-1.473-1.665,1.195-2.587,0.249-3.88
				c-0.309-0.422-0.683-1.037-1.094-1.097c-1.899-0.279-2.19-1.518-2.048-3.11c0.036-0.41-0.046-0.773-0.413-1.017
				c-4.157,1.75-4.086,1.716-2.183,5.815c0.642,1.385,1.909,2.854,0.56,4.639c-2.066-0.509-3.351,0.567-4.308,2.279
				c1.483,1.8,1.483,1.8,3.161,2.45c1.826,0.706,2.183,2.117,0.852,3.546c-0.601,0.646-1.238,1.074-2.218,1.341
				c-2.47,0.673-3.14,2.426-2.083,4.723c0.303,0.658,0.616,1.346,1.008,1.991c0.694,1.14-0.32,2.61-1.72,2.769
				c-0.778,0.088-1.588-0.075-2.357,0.044c-0.651,0.101-0.772,0.989-0.453,1.187c2.19,1.359,2.747,4.181,5.163,5.469
				c1.706,0.909,2.913,2.781,2.536,5.326c-2.607-0.152-5.106,0.428-7.379-1.445c-0.582-0.48-1.831-0.496-2.739-0.931
				c-0.365-0.175-1.102-0.319-1.435,0.213c-0.352,0.563-0.378,1.347-0.016,1.841c0.531,0.724,1.232,1.373,1.985,1.856
				c0.383,0.246,1.048,0.036,1.008,0.826c-0.113,2.262,1.32,2.632,3.036,2.383c1.279-0.186,1.896,0.625,2.607,1.367
				c0.84,0.876,0.697,2.22-0.366,2.448c-1.474,0.316-3.315,0.842-4.402-0.271c-1.029-1.053-2.418-0.712-3.332-1.609
				c-0.64-0.629-1.136-0.307-1.627,0.233c-0.445,0.489-1.267,0.912-1.317,1.423c-0.101,1.05-1.272,1.696-0.903,2.841
				c0.3,0.932,0.857,1.389,1.862,1.665c0.778,0.213,1.383,0.991,1.329,2.138c-0.077,1.61,0.14,3.249-2.089,3.463
				c-1.184,1.993-3.124,1.483-4.895,1.512c-0.911,0.015-1.362-0.694-1.69-1.365c-0.264-0.54,0.259-0.94,0.633-1.306
				c0.473-0.462,1.084-0.863,1.359-1.428c0.413-0.851,1.102-1.799-0.619-2.353c-1.338-0.431-2.084-1.621-1.03-3.066
				c0.348-0.477,0.456-0.911,0.409-1.432c-0.056-0.624,0.319-1.535-0.406-1.78c-0.849-0.287-1.995-0.238-2.344,0.813
				c-0.317,0.953-0.862,1.805-1.282,2.652c-0.569,1.149-1.062,1.94-0.121,3.085c0.738,0.899-0.13,1.515-0.713,1.877
				c-0.923,0.574-2.513,0.112-2.903,1.462c-0.547,1.896,1.698,1.363,2.392,2.417c0.937,1.421,0.788,2.792,0.492,4.09
				c-0.252,1.104-1.487,1.304-2.618,1.146c-0.358-0.05-0.799-0.159-1.136,0.43c0.027,1.879,1.432,3.032,2.67,4.274
				c0.545,0.546,0.697,1.069,0.089,1.651c-0.54,0.517-0.971,1.308-1.914,0.534c-0.463-0.38-1.161-0.481-1.59-0.886
				c-0.818-0.773-1.314-0.345-1.933,0.252c-0.771,0.743-0.344,1.198,0.041,1.98c0.405,0.823,0.958,1.462,1.436,2.195
				c1.076,1.652,0.467,3.377-1.375,3.897c-0.621,0.175-1.206,0.6-1.683,0.656c-1.658,0.194-1.576,1.361-1.159,2.218
				c0.798,1.643,0.753,4.407,3.888,3.598c0.697-0.18,1.024,0.712,1.47,1.15c0.887,0.871,1.241,3.202,0.503,3.419
				c-0.761,0.225-1.22,0.901-1.971,0.984c-0.796,0.088-1.091-0.645-1.514-1.089c-1.582-1.661-3.335-2.597-5.644-1.88
				c0,1.283-0.002,2.349,0,3.414c0.004,1.301,0.213,2.639-1.133,3.531c-0.807,0.535-0.213,1.499-0.465,2.192
				c-0.659,1.811,1.46,2.251,1.672,3.73c0.224,1.566-1.696,2.811-0.777,4.008c0.981,1.278,0.771,2.531,0.632,3.723
				c-0.166,1.419,0.971,2.365,0.865,3.674c-0.032,0.392,0.04,0.864-0.377,1.022c-0.327,0.124-0.768,0.204-1.057-0.193
				c-1.259-1.726-2.886-2.448-5.035-2.173c-2.023,0.259-3.08,2.247-1.847,3.921c0.505,0.685,1.028,1.729,2.037,1.663
				c1.982-0.129,2.432,1.78,3.676,2.609c0.391,0.26,0.28,0.721,0.155,1.064c-0.063,0.173-0.413,0.354-0.618,0.338
				c-0.759-0.062-1.648,0.365-2.255-0.22c-1.047-1.007-2.133-0.404-3.174-0.495c-0.503,2.182,0.055,3.894,1.017,5.646
				c0.451,0.82,1.287,1.571,1.179,2.698c-0.049,0.515,0.092,1.076-0.651,1.184c-1.225,0.178-2.463-0.315-3.683,0.681
				c-1.168,0.954-2.22-0.748-3.542-0.761c-2.017-0.02-2.391-0.585-2.348-2.608c0.023-1.112-0.389-2.274,0.654-3.353
				c0.424-0.439,0.343-1.746-0.209-2.751c-0.965,0-2.004-0.085-3.024,0.02c-1.477,0.153-2.057-1.057-2.758-1.887
				c-0.89-1.053,0.938-1.649,0.744-2.693c1.517,0.065,1.503-1.453,2.146-2.24c1.393-1.707,1.231-3.617-0.311-5.131
				c-0.708-0.695-1.314-1.419-2.411-1.807c-1.413-0.5-1.469-1.518-0.606-3.189c0.682-1.319,1.439-2.601,2.238-3.851
				c0.224-0.35,0.528-0.76,0.33-1.032c-0.534-0.735-1.135-1.458-1.841-2.015c-0.663-0.523-1.091,0.223-1.626,0.535
				c-0.397,0.232-1.035-0.009-1.517,0.133c-1.665,0.491-2.587,0.276-3.33-0.888c-0.611-0.958-0.473-2.619,0.487-3.505
				c0.906-0.836,1.456-2.09,3.103-2.103c1.116-0.008,2.151-1.169,2.306-2.271c0.164-1.167-1.058-1.548-2.059-1.817
				c-2.061-0.553-1.955-2.576-2.529-4.061c-0.312-0.808-0.196-1.87-0.026-2.769c0.351-1.854-0.526-3.21-1.898-3.949
				c-0.916-0.493-1.541-0.794-1.267-1.853c0.391-1.513-0.769-2.635-0.886-4.061c-0.108-1.322-1.418-1.75-3.067-1.52
				c-1.314,0.184-0.789,1.213-0.745,1.835c0.069,0.968-0.524,1.408-1.036,1.987c-0.76,0.861-1.798,1.496-2.216,2.553
				c0.736,1.444,1.446,2.742,2.067,4.083c0.655,1.414,0.524,2.308-0.725,2.958c-1.039,0.541-2.156,0.768-2.083,2.294
				c0.064,1.319,0.04,2.642,0.104,3.96c0.015,0.318,0.033,4.067-0.097,4.305c-1.009,1.845-1.041,2.251-0.806,5.401
				c0.062,0.829,0.41,1.992-1.195,1.812c-1.125-0.126-2.119,1.561-3.133,0.652c-0.885-0.794-0.254-2.244-0.39-3.394
				c-0.013-0.108-0.146-0.202-0.334-0.447c-1.681-0.284-3.185,1.05-4.944,1.019c-0.36-0.006-1.116,0.686-1.015,1.496
				c0.217,1.729-0.256,3.284-1.222,4.679c-0.745,1.077-0.481,1.926,0.39,2.739c0.483,0.451,0.888,0.996,1.404,1.398
				c1.542,1.2,0.958,2.817,0.897,4.337c-2.523,0.648-1.137,1.995-0.754,3.397c0.338,1.237,0.198,2.66,0.034,3.971
				c-0.155,1.237-1.178,2.044-2.21,2.456c-0.827,0.33-1.221-0.784-1.799-1.26c-1.104-0.91-1.005-2.346-0.443-3.185
				c0.954-1.425,0.233-2.746,0.603-4.026c-1.131-0.404-2.09-0.463-2.883-0.12c-0.832,0.36,0.068,1.492-0.57,2.123
				c-1.112,1.099-0.477,2.51-0.498,3.765c-0.025,1.443,0.037,2.715-1.678,3.27c-0.632,0.204-0.823,0.932-0.734,1.662
				c0.233,1.892-0.112,3.744,0.68,5.709c0.985,2.445-1.052,4.541-3.567,4.082c-1.652-0.302-3.015-1.274-4.024-2.634
				c-0.387-0.521-0.415-1.422-0.007-1.824c0.787-0.774,1.271-2.098,2.744-1.915c1.338,0.166,1.146-0.892,0.987-1.571
				c-0.192-0.82-0.632-1.606-1.082-2.331c-0.485-0.781-2.339-1.333-3.151-0.853c-0.76,0.45-1.332,1.094-1.276,2.228
				c0.116,2.367,0.035,4.745,0.035,7.152h-5.46c-0.025-0.435-0.13-0.732-0.041-0.948c1.148-2.8,1.094-3.269-0.618-4.684
				c-1.234-1.02-2.606-0.869-4.283,0.836c-1.217,1.237-2.422,1.059-3.787,0.798c0.094-2.499,1.676-6.762,3.095-8.116
				c1.421-1.356,2.283-2.561,1.152-4.718c-0.754-1.438-0.828-3.328,0.879-4.563c1.263-0.914,1.401-1.933,0.415-3.181
				c-0.37-0.468-0.767-1.097-0.767-1.653c0-2.704-1.697-5.02-1.623-7.729c0.034-1.247-1.124-1.695-1.809-2.416
				c-0.59-0.622-1.085,0.288-1.607,0.394c-1.737,0.353-3.518,0.344-5.318,0.005c0.445-1.932,1.393-3.212,2.59-4.406
				c1.028-1.026,1.038-2.389-0.179-2.895c-1.566-0.652-1.527-1.614-1.599-2.95c-0.074-1.379,0.741-2.966-0.555-4.135
				c-1.279-1.153-1.237-2.375-0.574-3.831c0.904-1.986,0.635-3.74-1.171-5.179c-1.884-1.501-1.848-1.547-0.706-3.28
				c0.959-1.456,0.99-2.643-0.015-3.801c-0.84-0.968-1.626-1.753-1.784-3.289c-0.153-1.491-2.547-1.731-3.363-0.396
				c-0.629,1.029-1.396,2.08-1.256,3.471c0.089,0.885,0.234,1.856-0.729,2.483c-1.492,0.973-1.665,2.443-1.648,4.113
				c0.024,2.367-0.945,3.691-3.191,4.24c-0.792,0.194-1.43,0.344-2.001,0.94c-0.336,0.35-0.429,0.9-0.259,1.055
				c0.83,0.756,1.3,1.892,2.659,2.104c2.468,0.385,3.459,1.563,3.615,3.865c0.191,2.818-1.207,4.219-3.629,3.017
				c-1.595-0.791-1.906-0.134-2.666,0.825c1.753,1.271,2.854,3.132,4.667,4.26c2.163,1.345,2.124,1.674,0.348,3.311
				c-0.908,0.838-1.705,1.018-2.716,0.237c-0.476-0.369-1.135-0.499-1.599-0.879c-0.946-0.775-1.424-0.02-1.903,0.548
				c-0.673,0.799-0.759,1.817,0.108,2.401c2.117,1.427,1.93,3.524,1.875,5.63c-0.004,0.133,0.001,0.266-0.001,0.399
				c-0.026,1.393-0.935,2.478-2.345,2.707c-0.512,0.083-1.049-0.008-1.573,0.018c-1.498,0.072-2.086,0.855-1.424,2.132
				c1.071,2.068,2.488,3.889,4.551,5.047c1.866,1.048,3.063,2.816,4.528,4.283c0.486,0.487,0.425,1.46-0.192,2.121
				c-0.441,0.472-0.925,1.157-1.61,0.726c-3.351-2.107-7.528-2.148-10.782-4.484c-0.272-0.195-0.686-0.187-1.085-0.286
				c-1.176,2.184,1.049,3.975,0.555,6.043c-0.064,0.269,0.847,0.992,1.402,1.146c0.733,0.202,1.568,0.111,2.349,0.038
				c2.248-0.208,3.86,0.908,5.31,2.462c0.319,0.342,0.391,0.712,0.294,1.066c-0.111,0.406-0.518,0.44-0.922,0.494
				c-2.587,0.341-4.532-1.109-6.507-2.404c-1.83-1.2-2.916-1.168-4.323,0.347c-1.174,1.265-1.183,3.586,0.015,4.887
				c0.716,0.778,1.544,1.46,2.196,2.287c0.316,0.401,0.217,1.069-0.404,1.234c-0.492,0.131-1.047-0.014-1.568,0.036
				c-0.797,0.076-1.47,1.284-1.054,1.928c0.281,0.434,0.653,0.85,1.074,1.141c1.253,0.866,1.453,2.089,1.272,3.47
				c-0.075,0.576,0.307,1.422-0.775,1.442c-0.64,0.012-1.216,0.049-1.769-0.53c-0.718-0.753-0.653-1.99-1.645-2.52
				c-0.514-0.274-1.273-0.21-1.273,0.283c-0.002,2.834-2.241,4.162-3.642,6.099c-1.888,2.612-3.594,5.309-2.138,8.991
				c0.587,1.485,0.845,3.5-0.746,5.129c-1.148,1.175-0.877,2.193,0.506,4.031c0.34,0.452,0.657,0.88,0.348,1.364
				c-0.328,0.514-0.894,0.526-1.313,0.071c-0.757-0.823-1.663-0.859-2.392-0.209c-0.826,0.737-1.89,1.341-1.738,2.864
				c0.275,2.747-0.871,5.109-2.113,7.493c-0.492,0.943-0.79,1.549-1.82,1.279c-0.916-0.24-1.576-0.794-1.556-1.915
				c0.032-1.731,0.008-3.463,0.008-5.194c0-1.465-0.215-2.973,0.058-4.384c0.303-1.567-1.225-2.526-0.897-4.087
				c0.256-1.215-0.723-1.726-1.823-2c-1.467-0.365-1.074,1.103-1.649,1.606c-0.844,0.739-0.2,1.762-0.429,2.614
				c-0.342,1.272-1.672,1.657-2.584,0.738c-1.348-1.359-2.617-2.826-4.552-3.329c-0.843-0.219-1.255-0.921-1.746-1.484
				c-1.173-1.345-0.048-3.146-0.649-4.51c-0.588-1.334-2.537-1.848-2.303-3.845c0.154-1.313,0.029-2.66,0.029-3.992
				c0-0.533,0.194-1.416-0.03-1.544c-2.443-1.392-0.749-3.372-0.711-5.053c0.027-1.193-0.38-1.94-1.159-2.747
				c-0.777-0.805-1.604-1.512-2.13-2.68c-0.884-1.962-2.754-1.832-3.85-0.012c-1.407,2.336-1.289,5.331-3.149,7.468
				c0.093,3.25-1.693,5.16-4.396,6.488c-1.285,0.631-1.271,1.941-1.086,3.108c0.186,1.174,1.039,1.538,2.235,1.645
				c2.119,0.19,2.302,0.499,2.452,2.562c0.036,0.502,0.141,1.063-0.442,1.388c-1.432,0-2.884-0.093-4.318,0.028
				c-1.231,0.104-2.016,2.01-1.277,3.001c0.47,0.631,1.08,1.163,1.661,1.701c0.43,0.399,0.593,0.839,0.332,1.367
				c-0.227,0.461-0.687,0.251-1.055,0.296c-2.55,0.313-2.918,0.662-2.752,3.084c0.124,1.803,0.546,3.424,2.589,4.144
				c1.768,0.623,1.427,2.338,1.295,3.72c-0.135,1.413-1.225,2.643-2.452,2.543c-2.547-0.208-2.872,1.352-3.363,3.192
				c-0.527,1.977,0.133,3.974,1.99,4.005c3.152,0.053,4.719,2.259,6.631,4.102c0.844,0.813,0.202,1.347-0.346,1.934
				c-0.645,0.692-1.579,0.702-2.107,0.293c-2.27-1.754-5.563-1.558-7.404-4.163c-0.581-0.822-3.691-0.734-3.906-0.063
				c-0.358,1.118,0.147,2.016,1.071,2.729c0.709,0.546,0.603,1.614,1.372,2.238c0.732,0.594,1.328,1.181,2.36,1.022
				c2.886-0.444,4.783,1.232,6.59,3.164c0.737,0.788,1.709,1.581,1.123,2.679c-0.576,1.081-1.869,0.342-2.824,0.54
				c-0.597,0.124-0.887-0.42-1.323-0.618c-1.482-0.671-2.912-1.33-4.093-2.55c-1.211-1.251-2.753-1.183-3.989,0.087
				c-0.7,0.72-1.722,1.224-1.978,2.587c0.291,0.299,0.683,0.625,0.983,1.023c0.874,1.158,2.461,1.31,3.32,2.523
				c0.776,1.097,0.756,1.618-0.569,2.529c-0.939,0.645-1.694,1.511-1.245,2.577c1.096,2.602,1.189,5.681,3.434,7.743
				c0.847,0.778,0.48,1.759,0.415,2.604c-0.089,1.164-1.259,1.43-2.515,0.92c-0.847-0.344-1.461-0.993-2.197-1.387
				c-1.824-0.977-3.509-2.359-5.856-2.096c-2.108,0.236-3.35,1.031-3.511,3.188c-0.078,1.043-0.419,1.712-1.125,2.348
				c-0.589,0.529-1.225,1.052-1.656,1.702c-0.976,1.474-1.798,2.945-0.482,4.789c0.441,0.618,1.275,1.399,0.839,2.422
				c-1.639,3.847-2.621,8.011-5.301,11.358c-0.348,0.435-0.761,0.773-1.324,0.59c-0.398-0.13-0.424-0.544-0.473-0.953
				c-0.392-3.231-2.137-6.121-2.33-9.398c-0.039-0.66-0.514-0.884-0.851-1.242c-0.664-0.708-1.396-0.514-1.483,0.542
				c-0.099,1.206-0.481,1.981-1.644,2.274c-1.269,0.32-2.349-0.562-3.016-1.205c-3.395-3.278-3.321-3.451-7.17-3.526
				c-1.113-0.022-1.752-1.045-2.815-0.88c-0.715-1.711-2.7-1.208-3.827-2.233c-0.189-0.172-0.775-0.124-1.024,0.05
				c-0.505,0.352-0.392,1.102-0.206,1.451c0.594,1.115,1.21,2.511,2.749,2.307c1.429-0.189,2.275,0.555,2.927,1.511
				c0.684,1.002,1.524,2.023,1.375,3.41c-0.029,0.269-1.532,4.945-1.555,5.333c-0.099,1.676-1.375,1.047-2.013,0.879
				c-1.083-0.285-1.5-1.939-0.908-2.942c0.432-0.732,1.636-1.008,1.156-2.551c-0.885,0-1.907-0.084-2.91,0.021
				c-1.277,0.134-1.809,1.224-1.202,2.415c0.695,1.365,1.428,2.692,1.132,4.323c-0.205,1.13,0.246,1.925,1.039,2.781
				c0.922,0.995,0.72,2.488-0.099,3.483c-0.458,0.556-0.973,0.918-1.619,0.273c-1.123-1.121-2.249-2.24-3.334-3.399
				c-0.33-0.353-0.715-0.383-1.055-0.283c-0.398,0.117-0.456,0.538-0.461,0.956c-0.011,1.058-0.004,1.997,0.934,2.835
				c0.806,0.72,1.83,2.32,1.332,2.865c-1.292,1.414-0.104,3.125-0.933,4.436c-0.953,0.061-1.844,0.237-2.901-0.189
				c0-0.851-0.049-1.76,0.013-2.662c0.068-0.978-0.055-1.857-0.94-2.403c-1.461-0.9-1.528-2.288-1.45-3.798
				c0.074-1.438,0.192-2.86-1.311-3.86c-1.405-0.935-1.408-2.383-0.636-3.762c0.272-0.485,0.575-0.893,0.232-1.373
				c-0.984-1.381-1.586-2.829-1.495-4.604c0.02-0.393-0.814-1.006-1.365-1.21c-0.739-0.274-1.441,0.573-1.467,0.982
				c-0.097,1.542-1.17,2.754-1.107,4.388c0.057,1.477,0.717,3.159-0.608,4.521c-0.158,0.163,0.012,0.704,0.097,1.053
				c0.801,3.273,0.883,3.465-1.744,4.924c-1.247,0.693-1.746,1.41-1.603,2.694c0.262,2.356-1.143,4.451-0.877,6.871
				c0.173,1.577-1.159,2.447-2.872,2.497c-0.408,0.012-0.755-0.064-1.036-0.524c0.349-1.827-0.087-3.413-1.444-4.92
				c-0.454-0.504-1.85-1.859-0.148-2.885c0.691-3.068-0.251-5.849-3.084-7.572c-1.014-0.617-0.977-1.467-0.732-1.823
				c1.431-2.077,0.314-4.377,0.768-6.494c0.238-1.107-0.863-1.485-0.903-2.471c-0.032-0.792-1.057-0.475-1.648-0.464
				c-0.745,0.013-0.642,0.642-0.641,1.164c0.005,2.264,0.023,4.528-0.005,6.792c-0.018,1.429,0.517,3.133-1.568,3.665
				c0.22,0.79-0.772,1.144-0.738,1.663c0.124,1.874-0.053,3.485-2.03,4.313c-0.181,0.076-0.404,0.446-0.362,0.617
				c0.526,2.139-1.065,3.954-0.843,6.071c0.166,1.58,0.033,3.193,0.033,4.791c0,1.065,0.204,2.192-0.082,3.171
				c-0.153,0.523-1.162,0.777-1.764,1.185c-0.206,0.14-0.513,0.401-0.492,0.573c0.272,2.298-1.625,3.597-2.446,5.375
				c-0.857,1.856-1.722,1.776-3.147,0.104c-0.327-0.383-0.627-0.712-0.782-1.277c-0.282-1.032-1.242-1.625-2.057-2.238
				c-0.256-0.192-0.893-0.08-0.981,0.343c-0.132,0.635-0.091,1.317-0.057,1.976c0.043,0.828-0.861,1.15-0.902,2.057
				c-0.03,0.666-1.107,0.37-1.72,0.377c-1.442,0.015-2.145,0.697-2.117,2.167c0.017,0.932,0.371,2.154-0.075,2.735
				c-0.88,1.147-0.216,2.984-1.711,3.688c-0.947,0.446-1.964,0.344-3.061-0.169c0.775-1.644-0.797-2.881-0.667-4.443
				c0.176-2.104-0.819-3.676-2.247-5.049c-1.041-1.001-1.778-1.958-1.835-3.68c-0.042-1.269-1.231-2.493,0.144-3.738
				c-1.189-1.431-0.495-3.237-0.939-4.803c-0.307-1.082-2.062-1.482-2.926-0.724c-0.361,0.317-0.656,0.715-0.913,1.197
				c-0.845,1.58-1.877,1.978-3.382,1.643c-2.415-0.538-4.03-0.306-5.685,0.872c-0.407,0.29-0.652,0.814-1.283,0.734
				c-0.496-0.063-1.149,0.166-1.381-0.417c-0.182-0.457-0.138-1.023,0.582-1.198c1.668-0.407,2.239-1.863,2.969-3.203
				c0.616-1.13,0.441-2.338,0.286-3.441c-0.145-1.031-1.338-0.281-1.972-0.618c-0.873-0.464-1.702-2.417-1.045-3.482
				c1.162-1.886,1.32-3.101-0.929-4.188c-1.054-0.509-1.128-1.656-0.296-2.68c0.398-0.491,1.167-0.74,1.14-1.508
				c-0.021-0.583,0.377-1.542-0.559-1.606c-1.263-0.085-2.352-0.22-2.562-1.73c-0.17-1.22,0.086-2.264,1.135-3.134
				c0.796-0.66,0.798-1.755-0.03-2.379c-1.285-0.968-1.17-2.251-1.106-3.55c0.107-2.153-1.087-3.599-2.49-4.952
				c-0.659-0.636-1.109-0.211-1.633,0.27c-1.081,0.992-0.622,2.142-0.38,3.251c0.072,0.332,0.74,0.509,0.534,0.953
				c-0.466,1.006-1.118,1.929-1.536,2.952c-0.55,1.345,1.528,2.742,0.678,3.561c-1.655,1.595-1.082,3.9-2.295,5.479
				c-1.174,1.528-0.377,2.763,0.405,3.98c0.421,0.655,1.09,1.146,1.647,1.711c0.613,0.622,0.293,1.08-0.151,1.665
				c-0.589,0.775-1.344,0.736-2.104,0.656c-1.903-0.201-2.061-0.243-2.097,1.412c-0.025,1.179-0.349,2.454-1.33,2.491
				c-1.483,0.056-0.912,1.347-1.558,1.865c-0.95,0.762,0.233,1.272,0.44,1.923c0.192,0.603-0.08,1.346,0.062,1.979
				c0.54,2.4-1.083,4.51-0.818,6.867c0.144,1.276-0.163,2.392-1.614,2.63c-0.751,0.124-0.697,0.572-0.747,1.101
				c-0.17,1.787,0.881,4.106-2.08,4.689c-0.574,0.113-0.344,0.986-0.249,1.436c0.729,3.445-0.918,5.788-3.378,7.79
				c-0.204,0.166-0.362,0.388-0.561,0.56c-2.775,2.392-4.003,5.497-3.936,9.122c0.02,1.048-0.326,1.751-1.075,2.36
				c-1.705,1.388-1.872,1.714-0.415,2.959c1.417,1.21,1.532,2.603,1.467,4.215c-0.068,1.667-2.169,3.233-3.592,2.346
				c-0.642-0.4-2.213-0.12-2.058-1.834c0.046-0.509-1.064-1.085-1.569-1.694c-0.954-1.152-2.517-1.827-2.331-3.857
				c0.078-0.852-2.255-1.712-3.33-1.151c-1.404,0.732,0.05,1.432,0.265,2.149c0.497,1.653,1.939,2.993,1.58,4.932
				c-0.121,0.655,0.529,0.842,0.78,1.27c0.566,0.965,1.576,1.292,2.478,1.661c2.27,0.931,3.512,3.013,5.208,4.577
				c0.472,0.435,0.326,1.268,0.064,1.84c-0.275,0.602-0.941,0.222-1.429,0.302c-0.833,0.135-1.492-0.1-2.038-0.821
				c-0.476-0.628-1.119-1.124-1.649-1.714c-0.596-0.664-1.198-1.049-1.901-0.187c-0.417,0.511-0.955,0.278-1.446,0.324
				c-1.874,0.174-3.827-0.466-5.611,0.758c-0.443,0.305-1.177,0.072-1.74-0.487c-0.705-0.701-1.154-1.862-2.372-1.853
				c-1.208,0.009-1.584-0.749-2.242-1.659c-1.474-2.038-2.1-4.653-4.169-6.269c-0.601-0.47-0.451-0.936-0.172-1.661
				c0.858-2.227,0.67-2.615-1.589-3.163c-1.032-0.25-1.386-0.489-0.858-1.475c0.942-1.76,1.13-3.45-0.554-4.881
				c-0.619-0.527-0.363-1.19-0.469-1.81c-0.57-3.333-2.031-4.607-5.277-4.672c-0.772-0.016-1.577,0.045-2.302-0.162
				c-0.41-0.117-0.69-0.707-1.028-1.083c2.07-1.541-0.347-3.001-0.098-4.561c0.269-1.686-0.946-2.825-2.047-3.906
				c-0.913-0.897-2.4-0.731-2.362,0.346c0.078,2.194-2.354,4.224-0.372,6.515c0.324,0.374,0.201,1.021-0.413,1.25
				c-1.482,0.552-2.944,1.219-4.475,1.562c-1.399,0.313-2.096-0.844-1.723-2.355c0.556-2.255,1.197-4.452-1.124-6.341
				c-1.555-1.265-1.852-3.257-1.632-5.283c0.1-0.921,0.002-1.863,0.023-2.795c0.011-0.491-0.235-0.696-0.666-0.764
				c-0.431-0.068-0.923,0.147-0.878,0.499c0.129,1-1.186,1.383-0.854,2.48c0.286,0.947-0.109,1.783-0.924,2.39
				c-1.077,0.802-0.547,1.418,0.122,2.232c1.216,1.477,1.204,1.975-0.058,3.249c-1.045,1.055-1.897,1.822-0.765,3.51
				c0.657,0.98-0.117,1.897-1.657,2.401c-0.702,0.23-0.853,0.951-0.592,1.163c1.02,0.829,0.826,1.908,0.721,2.909
				c-0.129,1.229-1.343,1.307-2.172,1.829c-1.326,0.835-1.354,2.089,0.102,2.664c1.311,0.518,2.031,1.522,2.979,2.349
				c1.123,0.98,1.073,1.992,0.001,3.009c-0.66,0.626-1.406,1.16-0.398,2.243c0.643,0.692,0.54,1.64-0.246,2.423
				c-0.909,0.905-1.698,0.627-2.725,0.159c-0.875-0.399-1.578-1.208-2.683-1.172c-0.813,0.026-1.11,0.244-1.159,1.11
				c-0.068,1.206,1.155,1.913,0.869,3.278c-0.614,2.925,0.545,5.478,2.128,7.868c0.178,0.268,0.115,0.7,0.174,1.128
				c-1.338,0.276-2.41,0.412-3.653-0.491c-0.932-0.678-2.178-1.042-3.251-1.639c-0.437-0.244-0.914,0.056-0.991,0.792
				c-0.095,0.908,0.278,1.469,0.871,2.056c0.481,0.476,1.263,0.134,1.664,0.816c0.254,0.433,0.789,0.723,0.637,1.33
				c-0.172,0.688-0.758,0.641-1.245,0.549c-2.308-0.435-4.03,0.45-5.38,2.31c-0.101,0.14-0.482,0.071-1.103,0.142
				c-0.257-0.332-0.569-0.973-1.074-1.348c-1.859-1.385-2.55-3.15-2.252-5.479c0.226-1.764-0.683-3.176-1.907-4.377
				c-0.461-0.452-0.938-1.193-1.597-0.759c-0.583,0.384-1.256,0.856-1.218,1.865c0.085,2.261,0.056,4.528,0.017,6.791
				c-0.031,1.792-0.386,2.147-2.19,2.467c-2.575,0.456-2.58,0.553-1.905,3.466c0.232,1.002,0.337,2.138,0.108,3.118
				c-0.257,1.099-1.216,1.483-2.413,1.444c-1.215-0.039-2.357-0.065-3.016-1.262c-0.147-0.267-0.095-0.715,0.242-1.078
				c1.098-1.182,0.145-2.95,1.22-4.307c0.508-0.641,0.218-2.015-0.838-2.754c-0.638-0.446-1.033-1.327-1.705-1.631
				c-1.74-0.787-2.077-2.18-2.123-3.878c-0.024-0.882,0.335-1.798-0.301-2.666c-1.003-1.369-1.392-2.927-1.282-4.666
				c0.065-1.032-0.663-1.582-1.67-1.78c-1.117-0.22-2.218,0.676-2.124,1.222c0.251,1.467-1.154,2.301-0.934,3.69
				c0.251,1.584,0.081,3.045-1.342,4.279c-0.359,0.311-1.156,1.311-0.995,2.315c0.358,2.226-0.551,4.307-0.731,6.465
				c-0.093,1.117-0.2,2.012-1.129,2.754c-0.677,0.541-1.058,1.354-1.501,2.136c-0.664,1.174-1.706,2.402-3.485,1.952
				c-0.291-0.074-0.862,0.139-0.977,0.38c-0.245,0.513-0.019,1.115,0.507,1.325c1.465,0.588,2.459,1.521,3.035,3.069
				c0.946,2.537,0.473,3.524-2.176,3.984c-0.374,0.065-0.919-0.065-1.103,0.147c-0.517,0.595-1.838,1.044-0.76,2.17
				c0.66,0.689,0.716,1.706,0.301,2.121c-1.056,1.056-0.54,2.243-0.621,3.362c-0.183,2.504-1.086,2.931-3.43,2.014
				c-1.301-0.509-2.458-1.293-2.788-2.396c-0.391-1.307-1.641-1.822-2.007-3.183c-0.275-1.023-1.448-2.261-3.074-1.833
				c-0.956,0.251-1.37-0.524-1.95-1.021c-0.955-0.819-1.689-1.805-2.973-2.356c-1.399-0.6-1.346-2.63-2.305-3.734
				c-0.972-1.118,0.262-1.56,0.36-2.32c0.117-0.917,0.144-1.88-0.001-2.789c-0.192-1.206-1.766-1.661-2.561-0.674
				c-0.927,1.151-2.171,1.814-3.374,2.422c-0.648,0.328-2.002,0.551-2.541-0.249c-0.714-1.061,0.572-1.57,1.147-2.15
				c0.996-1.003,2.216-1.723,3.699-1.494c0.981,0.151,1.697-0.468,1.864-1.091c0.26-0.972,0.89-1.521,1.459-2.197
				c0.564-0.67,0.581-1.532,0.067-2.122c-0.412-0.472-1.318-0.414-1.788-0.054c-0.999,0.765-2.22,1.155-3.077,2.195
				c-0.812,0.986-3.654,1.202-4.23,0.543c-0.556-0.637,0.398-2.608,1.78-3.561c0.286-0.197,0.843-0.086,1.03-0.319
				c0.631-0.785,1.455-1.319,1.895-2.39c0.986-2.399,1.135-2.336-1.038-3.811c-1.673-1.136-1.711-1.332-0.783-3.428
				c0.148-0.335,0.077-0.849,0.305-1.057c1.484-1.354,0.267-2.039-0.658-2.694c-1.848-1.31-1.911-1.289-1.237-3.392
				c0.292-0.911,0.371-1.865,0.068-2.665c-0.324-0.856-1.375-0.165-2.1-0.544c-1.797-0.94-2.288-2.159-1.266-3.847
				c0.134-0.221,0.35-0.399,0.553-0.566c0.77-0.636,0.871-1.312,0.029-1.924c-1.612-1.171-1.54-3.266-0.831-4.243
				c1.489-2.054-0.835-2.621-0.964-3.947c-0.032-0.328-0.522-0.53-0.96-0.465c-0.742,0.109-0.648,0.664-0.641,1.186
				c0.008,0.666-0.077,1.344,0.018,1.995c0.209,1.423-0.167,2.252-1.593,2.929c-1.286,0.61-1.037,1.604,0.419,2.683
				c1.496,1.108,1.49,1.584,0.452,2.773c-0.727,0.833-1.851-0.084-2.424,0.786c-0.125,1.812,0.184,3.59-0.734,5.335
				c-0.414,0.787-0.291,2.077,0.795,2.801c0.43,0.286,0.742,0.749,1.126,1.113c0.437,0.414,0.572,0.922,0.153,1.34
				c-0.203,0.202-0.845,0.294-1.015,0.135c-1.376-1.287-2.839-0.551-4.342-0.574c0.2,2.246-0.028,4.062-1.31,5.714
				c-0.925,1.192-0.852,2.538-0.314,4.07c0.314,0.896,1.465,1.795,0.854,2.805c-1.185,1.959-0.661,4.049-0.715,6.086
				c-0.021,0.797-0.356,1.428-0.897,1.597c-1.936,0.606-2.574,1.875-2.299,3.803c0.073,0.513,0.114,1.107-0.43,1.405
				c-1.22,0.667-1.05,1.962-1.378,3.023c-0.476,1.535-0.932,3.079-1.323,4.637c-0.454,1.808-2.169,2.527-3.116,3.894
				c-0.169,0.244-0.229,0.952,0.218,1.033c1.885,0.341,1.49,2.392,2.49,3.281c1.148,1.02,1.186,2.174,1.226,3.524
				c0.032,1.102-0.337,1.956-0.795,2.884c-0.289,0.585,0.372,1.603-0.965,1.699c-0.928,0.067-1.847-0.353-1.897-0.991
				c-0.117-1.485-1.832-1.823-1.913-3.224c-0.024-0.414-0.31-0.637-0.796-0.626c-0.776,0.017-0.764,0.533-0.764,1.07
				c-0.002,3.729-0.057,7.46,0.02,11.187c0.046,2.253-0.092,4.405-1.885,5.999c-0.752,0.668-0.424,1.453-0.489,2.199
				c-0.045,0.521,0.06,1.06-0.695,1.144c-0.644,0.072-0.867-0.476-1.262-0.78c-0.645-0.496-0.224-1.25-0.441-1.815
				c-0.6-1.566-2.1-1.891-3.355-0.765c-0.687,0.617-1.277,1.345-1.963,1.962c-0.92,0.826-2.56,0.845-3.464,0.035
				c-1.15-1.03-1.839-2.314-2.277-3.839c-0.433-1.51-2.663-1.08-3.203-2.989c-0.486-1.716-2.094-3.236-2.162-5.035
				c-0.092-2.442-2.125-3.146-3.164-4.704c-0.125-0.187-0.044-0.507-0.085-0.76c-0.295-1.812,0.64-2.839,2.001-1.903
				c1.288,0.885,1.871,0.507,2.501-0.403c0.624-0.901,0.22-2.587-0.988-2.888c-1.344-0.334-1.829-1.391-2.693-2.105
				c-0.911-0.753-1.619-1.763-2.542-2.499c-1.075-0.857-2.543,0.198-3.838-0.652c0.63-3.084-1.394-5.917-0.625-9.229
				c-0.974,0-1.608,0.019-2.241-0.004c-1.971-0.07-2.327-0.446-1.477-2.24c0.442-0.933,0.811-1.761,0.1-2.445
				c-1.382-1.331-1.614-3.092-1.965-4.778c-0.198-0.952-0.666-0.896-1.328-0.936c-0.856-0.051-1.154,0.306-1.094,1.147
				c0.066,0.912,0.044,1.726-0.745,2.501c-1.056,1.038-2.083,1.983-2.587,3.708c-0.435,1.49-1.718,2.769-1.388,4.59
				c0.12,0.657-0.486,0.873-0.799,1.259c-0.635,0.78-1.204,1.603-1.761,2.433c-1.227,1.825-2.833,3.554-5.508,2.772
				c-0.466-0.136-1.045,0.119-1.396-0.477c0.902-2.408,1.473-4.851,0.014-7.294c0.503-1.278-1.02-2.056-0.787-3.265
				c0.483-2.504-0.646-4.828-0.775-7.262c-0.024-0.444-0.141-0.781-0.544-0.882c-0.375-0.095-0.728,0.025-1.034,0.351
				c-0.449,0.478-0.58,1.252-0.893,1.593c-1.257,1.373-0.977,3.422-2.185,4.698c-0.942,0.994-1.125,1.801-0.424,3.061
				c0.636,1.145,0.645,2.393-0.46,3.524c-1.535,1.572-0.092,4.458-2.338,5.816c-0.115,0.07-0.015,0.507-0.015,0.774
				c0,0.4-0.17,0.982,0.027,1.17c1.79,1.709,0.067,2.536-0.876,3.39c-1.996,1.807-2.047,1.765-0.31,3.598
				c0.905,0.956,1.925,1.824,2.678,2.889c0.25,0.354,0.383,1.359-0.285,1.795c-0.473,0.308-1.005,0.081-1.326-0.409
				c-1.365-2.078-3.254-2.232-5.422-1.676c0,1.066,0.005,1.993-0.002,2.92c-0.004,0.641,0.099,1.256-0.502,1.796
				c-1.785,1.604-1.953,3.749-1.889,6.002c0.028,0.984,0.362,2.028-0.602,2.95c-1.177,1.125-2.639,1.958-3.731,1.135
				c-1.307-0.984-3.77-1.177-3.466-3.591c0.24-1.901-0.779-3.492-0.818-5.27c-0.032-1.48-0.689-2.13-2.119-2.179
				c-1.735-0.06-0.823,1.256-1.047,1.977c-0.111,0.356-0.061,0.829-0.277,1.074c-2.099,2.387-1.383,6.227-4.159,8.25
				c-0.541,0.394-0.254,0.978-0.282,1.474c-0.046,0.796,0.012,1.598-0.018,2.396c-0.066,1.769-1.39,3.132-3.096,3.219
				c-2.329,0.119-3.2-0.418-3.914-3.138c-0.243-0.926-0.301-1.999-1.151-2.28c-2.387-0.792-3.16-2.4-2.874-4.767
				c0.029-0.238-0.016-0.533-0.136-0.735c-1.354-2.293-1.609-4.798-1.431-7.392c0.009-0.133-0.011-0.268,0.003-0.399
				c0.121-1.108-0.576-1.735-1.426-2.032c-0.948-0.332-2.073,0.103-2.27,0.993c-0.566,2.565-2.95,4.45-2.596,7.305
				c0.098,0.785-0.273,1.287-0.816,1.653c-1.514,1.019-1.674,2.505-1.572,4.149c0.066,1.062,0.034,2.131,0.005,3.196
				c-0.023,0.826-1.299,1.557-1.927,1.029c-1.37-1.152-2.722-2.481-2.753-4.396c-0.051-3.154-1.613-5.75-2.949-8.354
				c-0.551-1.074-1.173-1.981-1.006-3.172c0.153-1.096-0.309-2.007-1.135-2.273c-1.029-0.332-2.174-0.466-3.208,0.559
				c-1.538,1.526-1.562,3.158-0.725,4.912c0.441,0.925,0.681,1.81-0.195,2.429c-1.192,0.842-1.081,1.993-1.059,3.17
				c0.013,0.664,0.028,1.263-0.581,1.764c-1.646,1.355-0.576,4.077-2.541,5.354c-0.172,0.112,0.062,0.967,0.199,1.45
				c0.468,1.653,0.107,2.474-1.306,2.555c-1.407,0.081-2.57-0.146-3.865-1.217c-2.198-1.817-4.298-3.709-6.264-5.764
				c-0.682-0.713-1.361-1.102-2.363-1.006c-1.432,0.136-1.987-0.652-2.234-2.053c-0.239-1.355-0.988-2.596-0.771-4.077
				c0.087-0.595,0.26-1.303-0.348-1.838c-1.899-1.67-1.383-3.69-0.71-5.682c0.494-1.462,0.735-3.09-0.822-3.711
				c-1.133-0.452-1.162-0.939-1.282-1.888c-0.176-1.387,0.37-2.589,1.012-3.574c0.577-0.885,0.928-1.776,0.384-2.444
				c-0.575-0.706-1.894-0.554-2.524-0.158c-0.635,0.399-1.326,0.74-1.976,0.991c-1.417,0.549-2.362,1.767-3.749,2.393
				c-0.914,0.412-1.895,0.867-2.362,0.136c-0.481-0.754-0.512-2.006,0.253-2.898c0.325-0.378,0.839-0.55,1.226-0.811
				c1.676-1.126,3.341-2.162,4.044-4.442c0.864-2.799,0.941-2.884-1.436-4.49c-0.634-0.428-2.325-0.107-1.95-1.862
				c0.235-1.101-0.335-2.393,0.892-3.237c0.298-0.205,0.516-0.565,0.705-0.893c1.212-2.095,0.245-3.953-2.192-4.191
				c-0.65-0.063-1.325,0.072-1.965-0.032c-0.675-0.109-0.787-0.856-0.487-1.195c1.226-1.386,2.566-2.668,3.87-3.981
				c0.455-0.458,1.14-0.954,0.687-1.621c-0.399-0.588-0.858-1.408-1.857-1.174c-0.612,0.143-1.336-0.317-1.852,0.277
				c-0.694,0.799-1.209,0.583-1.935-0.045c-0.763-0.659-0.836-1.774-0.5-2.113c0.922-0.931,0.718-2.554,2.576-3.063
				c1.735-0.475,1.853-1.769,0.301-2.847c-1.946-1.353-2.478-3.22-2.181-5.496c0.077-0.595,0.321-1.36-0.325-1.841
				c-1.461-1.086-1.478-2.875-1.935-4.377c-0.334-1.097-0.781-2.647-1.478-2.735c-1.737-0.219-1.728,1.419-1.856,2.739
				c-0.031,0.321-0.54,0.568-0.662,0.91c-0.39,1.094-0.783,1.971-0.128,3.38c1.216,2.617,0.924,2.732-1.029,4.806
				c-0.506,0.538-1.377,0.879-1.146,2.404c0.178,0.135,0.751,0.477,1.201,0.942c0.43,0.443,1.126,0.734,1.084,1.868
				c-0.452,0.458-1.076,1.108-1.718,1.739c-1.152,1.131-2.338,2.179-0.712,3.927c0.234,0.251,0.51,1.418-0.902,2.057
				c-2.29,1.038-2.047,2.579,0.226,3.867c0.322,0.182,0.602,0.498,0.942,0.579c1.796,0.433,2.632,1.779,3.302,3.354
				c0.516,1.212,0.062,2.314-1.199,2.434c-0.998,0.094-1.913-0.012-2.868-0.712c-1.09-0.799-2.52-1.096-3.963-0.873
				c-0.806,0.124-1.167,0.784-1.013,1.644c0.137,0.764,0.727,1.339,1.177,1.453c1.742,0.445,2.684,2.284,4.501,2.507
				c0.747,0.092,0.787,0.695,0.621,1.161c-0.214,0.599-0.866,0.361-1.353,0.452c-0.87,0.162-1.679-0.594-1.954-0.894
				c-1.677-1.831-4.033-2.563-5.865-4.082c-0.512-0.424-0.971-1.008-1.618-0.411c-0.61,0.563-1.471,1.002-0.637,2.229
				c0.816,1.2,0.952,2.872-0.081,3.961c-1.399,1.475-1.549,2.604,0.039,3.911c0.853,0.702,0.491,1.33-0.177,1.929
				c-0.393,0.352-0.699,0.995-1.127,1.08c-1.313,0.259-1.437,1.023-1.427,2.192c0.008,0.982,0.518,2.095-0.457,2.99
				c-1.7,1.559-1.579,3.109,0.077,4.67c0.323,0.304,0.268,1.04,0.599,1.315c1.146,0.953-0.027,1.332-0.444,1.686
				c-0.485,0.412-1.369,0.432-1.793,0.026c-1.277-1.224-2.689-0.295-4.395-0.836c0.774,3.044-0.622,5.021-2.152,6.898
				c-0.517,0.635-0.954,1.147-0.861,2.056c0.196,1.906-1.169,3.285-1.991,4.732c-0.938,1.651-2.907,1.955-4.75,1.676
				c-1.533-0.232-2.439-1.292-2.661-2.82c-0.081-0.558-0.155-1.024-0.618-1.345c-1.853-1.288-2.467-3.664-4.196-5.013
				c-1.793-1.398-1.519-4.097-3.561-5.363c-0.614-0.381-0.548-1.776-1.443-2.117c-1.318-0.501-1.561,1.225-2.471,1.439
				c-0.74,0.174-1.287,0.247-1.121,1.123c0.224,1.183-0.714,1.634-1.33,2.237c-1.116,1.093-2.432,0.958-3.211-0.337
				c-0.437-0.726-0.61-1.61-1.004-2.369c-0.35-0.673-0.83-1.161-1.659-1.435c-2.255-0.744-2.16-0.823-2.287-2.774
				c-0.094-1.439,0.16-2.759,1.055-4.031c-2.627-0.904-4.659,0.145-6.688,1.038c-0.388,0.171-0.766,0.303-1.067,0.147
				c-0.571-0.295-0.526-1.043-0.328-1.403c0.639-1.16,1.263-2.452,2.238-3.268c1.149-0.962,1.879-2.008,1.611-3.41
				c-0.213-1.116-1.3-1.221-2.353-1.532c-2.223-0.656-2.478-2.064-1.575-4.431c0.505-1.326,1.675-2.715,0.429-4.271
				c-1.056,0-2.106,0.021-3.156-0.006c-1.009-0.026-1.685-0.942-1.123-1.805c0.681-1.046,0.943-2.363,2.051-3.167
				c0.564-0.409,1.395-0.881,0.932-1.978c-0.916-0.559-1.985-0.067-2.985-0.24c-1.781-0.309-2.845-1.832-2.398-3.446
				c0.063-0.228,0.422-0.407,0.424-0.611c0.017-1.496,1.541-1.401,2.217-2.198c0.475-0.561,0.868-1.454,0.163-1.584
				c-2.519-0.467-1.994-2.307-2.025-3.945c-0.016-0.799-0.085-1.609,0.014-2.395c0.224-1.78-1.057-2.554-2.172-3.374
				c-0.688-0.506-1.622,0.282-1.808,1.171c-0.401,1.917,1.268,4.437-1.551,5.668c0.075,1.137-0.321,2.384,0.88,3.233
				c0.988,0.699,0.94,1.454-0.001,2.211c-0.409,0.329-0.741,0.754-1.122,1.12c-1.067,1.025-2.143,2.001-0.734,3.593
				c0.574,0.648-0.074,1.116-0.458,1.643c-1.371,1.883-1.332,2.82,0.113,4.359c0.905,0.964,1.866,1.875,2.767,2.843
				c0.141,0.152,0.166,0.503,0.115,0.733c-0.092,0.412-0.389,0.545-0.835,0.59c-1.702,0.172-3.103-0.782-4.636-1.218
				c-1.777-0.505-1.766-0.583-3.2,0.831c-0.428,0.422-0.924,0.588-1.334,0.16c-0.868-0.906-2.068-1.559-1.839-3.238
				c0.205-1.499-0.791-2.61-1.796-3.617c-1.505-1.509-3.48-1.426-4.385,0.495c-0.483,1.025-1.298,2.259-1.883,2.276
				c-2.077,0.058-2.685,1.44-3.569,2.873c-0.644,1.044-1.545,2.248-3.058,0.68c-0.347-0.359-1.447-0.226-2.067,0.558
				c-0.736,0.929-1.597,1.776-2.501,2.541c-0.614,0.52-1.927-0.168-1.962-0.969c-0.061-1.417,0.301-2.948-1.262-3.875
				c-0.566-0.336-0.346-0.971-0.305-1.455c0.234-2.749-2.413-4.851-1.664-7.709c0.017-0.065-0.161-0.201-0.267-0.276
				c-1.061-0.76-1.058-1.884-1.309-3.062c-0.668-3.129-1.866-6.117-3.08-9.08c-0.436-1.065-1.159-1.749-2.357-1.488
				c-1.159,0.253-1.632,1.05-1.599,2.281c0.06,2.263,0.044,4.529,0.002,6.792c-0.014,0.745,0.289,1.549-0.462,2.205
				c-1.821,1.59-2.038,3.739-1.891,5.992c0.026,0.398,0.018,0.799,0,1.198c-0.021,0.453-0.261,0.647-0.722,0.708
				c-0.911,0.12-2.717-0.854-3.11-1.963c-0.239-0.674-0.37-1.525,0.383-2.16c0.603-0.509,1.172-1.08,1.656-1.703
				c0.188-0.242,0.217-0.741,0.114-1.053c-0.152-0.46-0.653-0.344-1.024-0.315c-0.364,0.029-0.842,0.032-1.061,0.257
				c-1.009,1.032-2.238,0.323-3.344,0.512c-0.2,0.034-0.601-0.143-0.632-0.284c-0.074-0.338-0.12-0.842,0.068-1.051
				c0.603-0.67,1.347-1.781,1.984-1.745c2.324,0.13,1.947-2.402,3.315-3.118c0.063-0.033-0.005-0.526-0.143-0.698
				c-0.132-0.165-0.546-0.335-0.644-0.257c-1.851,1.486-4.214,1.278-6.271,2.033c-0.686,0.252-1.053,0.397-1.66-0.084
				c-0.736-0.584-0.87-1.329-0.685-2.1c0.108-0.452,0.612-0.795,0.89-1.219c1.03-1.573,3.041-1.896,4.141-3.383
				c0.526-0.711,0.885-1.216-0.315-1.69c-1.894-0.749-2.685-2.239-2.401-4.324c0.176-1.296,0.073-2.146-1.751-2.144
				c-1.359,0.002-1.517-1.529-1.389-2.787c0.205-2.007,0.243-2.048-0.962-3.251c-0.771-0.77-0.95-1.724-0.36-2.421
				c0.827-0.978,0.535-2.006,0.477-2.989c-0.03-0.518-0.958-0.691-1.219-0.266c-0.515,0.839-0.737,1.725-1.785,2.282
				c-1.796,0.953-2.08,1.872-1.479,3.706c0.623,1.902,1.364,3.767,1.385,5.807c0.022,2.098,0.005,4.196,0.005,6.588
				c-1.588-0.525-2.904,0.244-4.3-0.819c-1.473-1.121-1.676-1.38-0.083-2.551c1.587-1.166,1.623-1.667,0.222-3.024
				c-0.285-0.276-0.521-0.622-0.844-0.836c-0.874-0.579-1.984,0.052-2.093,1.119c-0.102,0.999,0.478,2.18-0.596,2.937
				c-1.506,1.062-1.36,2.918-0.844,3.926c0.799,1.559,0.559,3.02,0.642,4.532c0.044,0.799,0.174,1.418,0.711,2.122
				c1.151,1.511,0.918,3.406,0.884,5.206c-0.021,1.102-0.845,0.717-1.414,0.798c-0.799,0.114-1.175-0.546-1.531-1.03
				c-0.609-0.827-1.473-0.704-2.132-0.509c-0.752,0.221-0.392,1.128-0.433,1.746c-0.181,2.699-1.188,3.739-3.725,3.788
				c-0.919,0.018-1.872-0.155-2.75,0.036c-1.764,0.385-2.773-0.74-3.546-1.888c-0.838-1.242-1.042-2.765-1.085-4.353
				c-0.04-1.47,0.839-2.108,1.615-2.949c0.268-0.29,0.605-0.533,0.807-0.863c0.433-0.704-0.21-1.904-1.028-1.963
				c-0.392-0.029-0.794-0.053-1.18,0.004c-1.181,0.174-2.092-0.305-2.469-1.38c-0.323-0.919,0.119-1.739,0.896-2.401
				c0.889-0.758,1.624-1.547,1.493-2.991c-0.104-1.146-0.554-1.39-1.437-1.216c-2.586,0.51-3.325,1.454-3.35,4.153
				c-0.01,1.065,0.013,2.131-0.005,3.196c-0.042,2.538-0.035,2.682-2.833,2.946c-0.937,0.088-1.379,1.533-2.37,0.763
				c-1.308-1.016,0.702-1.452,0.486-2.326c-0.12-0.484,0.079-0.968-0.29-1.485c-1.261-1.766-0.434-3.151,0.968-4.355
				c1.359-1.167,2.356-2.448,1.416-4.376c-2.679-0.046-2.679-0.046-3.676,2.394c-0.61,1.492-2.324,2.035-3.835,1.163
				c-0.644-0.372-0.898-1.383-1.839-1.277c-1.895,0.214-1.977-1.664-2.075-2.488c-0.188-1.587-0.202-3.234,0.337-4.969
				c0.647-2.08,1.203-4.636-1.142-6.475c-0.839-0.658-1.526-0.621-1.885,0.196c-0.705,1.605-1.937,2.709-3.112,3.88
				c-0.644,0.641-0.956,1.191-0.162,1.947c0.671,0.639,0.356,1.526,0.281,2.253c-0.125,1.216-0.978,1.692-2.181,1.664
				c-1.345-0.032-0.939-1.03-0.905-1.699c0.063-1.245-0.465-1.967-1.593-2.309c-0.935-0.284-1.16-1.127-1.673-1.826
				c-1.102-1.502-0.518-3.032-0.681-4.533c-0.145-1.339-2.725-4.571-4.029-4.817c-0.648-0.123-1.202,0.04-1.744,0.573
				c-0.561,0.551-0.404,1.177-0.577,1.777c-0.64,2.217-0.894,2.436-3,2.411c-1.64-0.019-2.866,0.025-3.502,2.113
				c-0.477,1.565-2.06,1.573-3.39,0.169c-0.971-1.024-1.911-1.631-3.363-1.485c-1.808,0.183-3.048-0.961-4.231-2.154
				c-0.994-1.002-1.833-2.242-3.595-1.85c-0.885,0.197-1.567-0.669-1.663-1.312c-0.141-0.944-0.745-1.391-1.299-1.856
				c-1.388-1.165-2.301-2.462-1.941-4.404c0.066-0.353,0.169-0.806-0.268-1.077c-1.665-1.03-1.353-2.717-1.262-4.25
				c0.078-1.31-0.469-1.607-1.586-1.462c-0.751,0.097-0.809-0.445-0.808-1.005c0.001-0.666-0.016-1.332,0.006-1.998
				c0.014-0.419-0.055-0.835-0.453-0.968c-0.557-0.187-0.948,0.171-1.338,0.567c-0.389,0.396-0.389,1.013-0.629,1.323
				c-1.369,1.771-1.859,3.15-0.036,5.188c1.675,1.871,1.032,2.915-1.688,3.249c-1.423,0.175-2.141,0.7-2.164,2.141
				c-0.009,0.53-0.017,0.901-0.712,1.135c-2.209,0.744-2.719,2.49-2.454,4.666c0.23,1.893-0.442,3.872,0.746,5.698
				c0.298,0.458,0.4,1.524-0.932,1.637c-1.197,0.102-2.767,0.256-3.433,1.037c-0.805,0.943-1.087,1.977-2.665,2.224
				c-1.221,0.191-2.27,1.431-3.438,2.132c-0.26,0.156-0.792,0.144-1.033-0.029c-0.588-0.419-0.257-2.61,0.418-3.01
				c0.814-0.482,2.083-0.733,2.39-1.43c0.879-1.997,2.08-4.015,1.55-6.39c-4.612-0.274-4.929-0.605-4.625-4.635
				c0.039-0.522-0.063-1.06,0.692-1.141c1.245-0.134,1.452-1.144,1.85-2.119c0.638-1.559,0.349-2.487-1.131-2.659
				c-1.255-0.146-2.564,0.22-3.769-0.232c0-0.716,0.007-1.249-0.002-1.782c-0.009-0.521-0.103-1.206,0.631-1.171
				c2.408,0.113,3.127-2.122,4.532-3.346c0.969-0.844,0.213-2.816-1.081-3.037c-0.733-0.125-1.68-0.164-2.246,0.206
				c-0.751,0.49-1.176,0.794-1.963,0.077c-0.832-0.759-0.984-1.754-0.44-2.417c0.554-0.675,0.498-1.689,1.793-2.123
				c1.595-0.535,1.529-2.071,0.281-3.433c-0.536-0.585-1.097-1.149-1.673-1.693c-0.393-0.372-0.739-0.741-0.619-1.341
				c0.564-2.837-1.205-5.09-1.976-7.57c-0.231-0.742-0.097-1.56-0.489-2.176c-0.498-0.783-1.183-1.323-2.277-1.167
				c-1.065,0.152-0.797,0.907-0.747,1.469c0.078,0.871-0.615,1.427-0.92,2.012c-0.592,1.134-0.798,1.858-0.208,3.126
				c0.802,1.724,0.52,3.443-1.082,4.895c-1.386,1.256-1.283,1.719-0.232,3.257c1.15,1.684,1.255,2.081-0.022,3.259
				c-1.166,1.076-1.713,2.188-1.539,3.79c0.076,0.707,0.4,1.591-0.197,2.057c-1.933,0.528-3.185-0.243-4.222-1.577
				c-0.537-0.69-1.098-1.015-1.913-0.25c-0.834,0.783-1.081,1.484-0.06,2.222c1.405,1.015,1.065,1.93-0.12,2.778
				c-1.358,0.971-1.814,2.439-1.179,3.772c0.448,0.942,0.186,1.43,0.123,2.268c-0.165,2.188-1.229,4.192-1.061,6.398
				c0.107,1.405-0.103,2.426-1.738,2.99c-1.077,0.371-2.606,0.891-2.346,2.793c0.036,0.261-0.634,1.125-1.43,1.126
				c-0.797,0.002-1.388-0.738-1.443-1.144c-0.385-2.842-3.167-4.504-3.43-7.375c-0.019-0.204-0.359-0.37-0.533-0.569
				c-0.494-0.563-1.014-0.792-1.625-0.17c-0.464,0.471-1.005,0.887-1.376,1.425c-0.684,0.99-1.653,0.527-2.51,0.632
				c-0.799,0.098-1.144-0.592-1.516-1.065c-0.532-0.676,0.076-1.142,0.505-1.635c0.738-0.847,1.753-1.38,1.746-2.884
				c-0.012-2.634,0.505-3.334,3.072-3.927c1.315-0.303,2.503-1.137,3.997-0.935c0.818,0.11,1.899-1.438,1.509-1.847
				c-0.773-0.81-1.271-2.084-2.638-2.077c-1.503,0.007-3.074-0.34-4.405,0.781c-0.93,0.784-2.052,0.892-3.214,0.809
				c-1.191-0.085-2.156,0.145-3.123,1.103c-1.062,1.053-2.556,0.553-3.11-0.801c-0.186-0.454,0.058-1.084-0.111-1.553
				c-0.319-0.887-1.402-1.118-2.431-0.591c-1.63,0.835-3.199,1.822-4.893,2.485c-0.853,0.334-2.175,0.634-2.772-0.378
				c-0.479-0.812,0.642-1.292,1.127-1.856c0.585-0.679,1.286-1.179,1.222-2.31c-0.057-1.005,0.699-1.733,1.725-1.659
				c0.946,0.069,1.327-0.656,1.98-0.991c2.006-1.03,3.403-2.73,4.938-4.284c0.317-0.322,0.669-0.434,1.037-0.338
				c0.401,0.105,0.489,0.466,0.533,0.896c0.105,1.016-0.358,2.103,0.396,3.199c1.508-0.556,2.701-0.932,2.844-3.161
				c0.181-2.813,2.134-4.125,4.909-4.147c1.05-0.008,2.101-0.002,3.151-0.001c0.5,0.001,1.166,0.136,1.251-0.532
				c0.076-0.598,0.326-1.709-0.338-1.763c-1.588-0.128-2.087-2.209-4.078-1.808c-1.764,0.355-3.526,0.437-4.75,1.891
				c-0.931,1.105-1.95,1.484-3.378,1.457c-2.016-0.039-3.729,0.318-4.849,2.649c-1.205,2.507-5.801,2.808-7.687,1.066
				c-0.94-0.868-0.852-1.813-0.885-2.848c-0.095-2.968-0.204-3.086-2.941-3.305c-0.391-0.031-0.803,0.068-1.178-0.018
				c-1.221-0.278-1.619-1.67-0.769-2.615c1.242-1.378,2.472-2.784,4.631-2.177c0.244,0.069,0.526-0.018,0.785,0.014
				c0.968,0.118,1.447-0.652,1.794-1.266c0.39-0.689-0.313-1.232-0.825-1.595c-2.049-1.453-4.354-2.583-4.206-5.806
				c0.043-0.938-1.417-1.239-2.068-0.424c-1.165,1.458-3.15,2.239-3.2,4.679c-0.023,1.154-2.851,2.529-3.38,1.985
				c-0.925-0.95-0.432-2.244-0.401-3.365c0.019-0.672,0.448-1.482,0.946-1.958c0.955-0.913,0.698-2.052,0.494-2.957
				c-0.208-0.923-1.341-0.458-2.055-0.455c-0.8,0.004-1.357-0.506-1.523-1.013c-0.383-1.17-1.48-2.131-1.074-3.552
				c0.789-2.755-1.908-4.62-1.844-7.25c0.013-0.541-0.924-1.101-1.875-1.037c-1.385,0.094-2.785-0.045-4.252-0.087
				c0.303-1.776-0.238-3.267,1.135-4.695c1.159-1.206,1.106-3.469,0.055-4.672c-1.149-1.315-1.03-2.573-1.104-3.982
				c-0.053-1.003-0.348-1.953-0.609-2.918c-0.786-2.905-2.474-5.377-3.327-8.212c-0.106-0.351-0.251-0.7-0.438-1.013
				c-0.698-1.168-1.886-0.854-2.827-0.698c-0.867,0.144-1.473,0.866-1.483,1.971c-0.008,0.886,0.404,1.887-0.284,2.662
				c-2.236,2.516-1.559,5.98-2.84,8.8c0.841,3.268-1.2,5.162-3.288,7.002c-0.782,0.69-0.702,2.135-2.164,2.287
				c-0.496,0.052-0.961,0.766-0.867,1.581c0.301,2.604-1.076,4.625-2.525,6.506c-0.716,0.929-0.668,2.895-2.337,2.628
				c-1.679-0.269-1.231-1.933-1.469-3.189c-0.461-2.434-2.076-3.819-3.896-3.05c-2.013,0.85-3.579,1.195-5.029-0.763
				c-0.107-0.144-0.477-0.122-0.725-0.119c-3.952,0.042-8.237-0.957-10.768,3.551c-0.188,0.335-0.523,0.6-0.828,0.849
				c-0.812,0.662-1.634,0.667-2.404-0.076c-0.571-0.55-1.121-1.123-1.673-1.694c-0.439-0.454-0.995-0.246-1.477-0.212
				c-0.589,0.041-3.077-1.015-3.401-1.525c-0.403-0.634-1.294-0.904-1.275-1.867c0.03-1.465-0.136-2.949,0.049-4.39
				c0.18-1.403-1.509-2.591-0.123-4.21c0.68-0.796-0.265-1.929-1.307-2.416c-1.693-0.791-1.699-0.784-1.174-2.596
				c0.293-1.009,0.382-1.994-0.154-2.964c-1.483-2.682-2.026-4.902-2.03-7.546c-0.001-1.104,0.04-2.065,1.066-2.769
				c0.869-0.597,0.674-1.285-0.06-1.918c-0.399-0.344-0.73-0.768-1.122-1.121c-0.932-0.838-1.555-2.081-3.179-1.9
				c-1.755,0.195-3.422-0.148-4.968,1.483c-1.499,1.581-3.411,3.159-6.001,2.545c-0.907-0.215-1.373,0.433-2.005,0.899
				c-1.813,1.337-3.038,0.78-3.406-1.442c-0.331-2.005-0.718-2.43-2.182-1.5c-1.185,0.752-1.662,0.274-2.213-0.451
				c-0.61-0.802-0.559-1.619,0.172-2.448c0.742-0.843,1.901-1.043,2.359-0.417c1.169,1.598,2.686,1.475,4.216,1.33
				c1.094-0.103,1.704,0.439,2.299,1.161c0.371,0.451,0.802,0.605,1.652,0.245c0-2.744-0.011-5.635,0.012-8.526
				c0.004-0.483-0.198-0.802-0.599-0.807c-0.335-0.005-0.711,0.195-1.003,0.401c-1.234,0.875-1.87,2.96-3.587,2.684
				c-2.407-0.388-5.173-0.074-6.528-3.271c-0.938-2.212-1.41-2.201,0.084-3.589c1.989-1.849,3.038-3.658,1.443-6.403
				c-0.681-1.173,0.51-2.589,1.931-2.614c0.608-0.011,1.321-0.334,1.844,0.279c0.704,0.826,1.285,0.564,1.916-0.124
				c0.419-0.457,0.761-1.048,1.565-1.007c0.385,0.019,0.605-0.365,0.57-0.835c-0.035-0.472-0.25-0.734-0.698-0.728
				c-2.056,0.025-2.871-1.148-3.298-3.062c-0.375-1.678-1.627-2.396-2.787-1.555c-1.761,1.277-3.957,1.329-5.684,2.507
				c-0.45,0.307-1.017,0.8-1.315,0.433c-0.548-0.673-1.934-0.677-1.859-1.073c0.393-2.07-1.723-2.942-1.919-4.893
				c-0.244-2.425-1.131-2.453-2.869-0.842c-1.002,0.929-1.657,2.478-3.481,2.12c-0.34-0.067-0.438,0.459-0.551,0.854
				c-0.329,1.154-2.537,2.947-3.583,3.116c-1.166,0.19-1.782-0.15-2.198-1.394c-0.197-0.587-0.563-1.132-0.482-1.783
				c0.155-1.242-0.235-2.443,0.689-3.732c0.962-1.342-0.869-2.843-0.686-4.396c0.148-1.256-0.373-1.658-1.534-1.498
				c-0.708,0.098-0.898-0.381-0.833-0.968c0.083-0.75-0.147-1.477,0.353-2.256c0.853-1.328,0.739-2.703-0.582-3.783
				c-0.781-0.639-0.816-1.263-0.027-1.936c0.4-0.342,0.779-0.721,1.114-1.129c1.452-1.772,0.921-3.564-1.359-4.279
				c-1.075-0.338-2.005-0.768-1.827-2.012c0.138-0.964-0.541-1.65-0.899-2.003c-1.707-1.689-1.523-3.734-1.528-5.8
				c-0.001-0.2-0.266-0.4-0.409-0.6c-0.874,0.13-1.814-0.314-2.631,0.288c-0.103,2.933-0.085,2.949-1.963,5.183
				c-0.476,0.566-0.476,0.927-0.214,1.676c1.185,3.391-0.11,7.88-2.642,10.061c-0.882,0.76-1.392,0.246-1.901-0.379
				c-0.224-0.275-0.491-0.698-0.435-0.994c0.568-2.976-1.202-6.167,1.362-9.065c1.209-1.367-0.357-3.071-1.661-4.304
				c-1.003-0.948-1.826-1.167-3.008-0.371c-1.622,1.093-3.399,1.562-5.387,0.783c0-1.6-0.327-3.285,0.092-4.75
				c0.421-1.469,1.586-2.719,2.435-4.081c-0.456-0.224-0.665-0.369-0.895-0.433c-1.306-0.368-3.319,0.9-3.845-0.634
				c-0.469-1.367,1.652-2.099,2.501-3.221c0.336-0.443,0.631-0.805,0.384-1.603c-1.137-0.237-2.374-0.272-3.626,0.059
				c-0.337,2.32-2.141,1.346-3.3,1.333c-1.54-0.018-2.149-1.924-1.167-3.195c1.303-1.685,1.998-3.755,1.909-5.66
				c-0.012-0.266,0.002-0.533-0.002-0.799c-0.029-1.733-0.001-1.761-1.731-3.589c-0.504-0.532-0.698-1.05-0.636-1.743
				c0.072-0.804,0.025-1.536-0.729-2.098c-1.284-0.956-1.17-2.382-0.502-3.477c0.713-1.168,0.268-2.294,0.428-3.423
				c0.028-0.2-0.175-0.605-0.314-0.625c-0.341-0.051-0.753-0.021-1.049,0.141c-0.332,0.181-0.721,0.494-0.825,0.832
				c-1.006,3.276-3.805,5.509-4.907,8.73c-0.156,0.455-0.581,1.061-0.975,1.144c-1.551,0.327-2.242,1.672-3.279,2.596
				c-1.28,1.139-1.602,1.16-3.252-0.003c-1.611-1.135-2.172-1.272-3.19,0.23c-1.303,1.92-2.469,4.036-2.645,6.455
				c-0.106,1.46-0.745,1.94-2.129,2.214c-1.682,0.333-2.072-0.915-2.312-1.83c-0.441-1.685-1.39-3.249-1.149-5.148
				c0.141-1.114,0.328-2.346-0.279-3.518c-1.209,0.103-2.003,1.011-3.01,1.399c-1.257,0.484-2.173,0.957-2.255,2.629
				c-0.056,1.132-1.154,2.154-2.26,2.344c-1.531,0.263-3.141,0.104-4.715,0.051c-0.87-0.03-1.346-0.717-1.592-1.456
				c-0.298-0.896,0.207-4.261,0.775-5.652c0.501-1.227,1.227-2.197,2.648-2.507c0.436-0.095,0.782-0.656,1.148-1.025
				c1.633-1.65,1.143-5.151-0.958-5.972c-1.043-0.408-2.432-0.521-3.367,0.09c-0.938,0.613,0.317,1.251,0.506,1.908
				c0.277,0.961-0.455,1.654-0.731,2.475c-0.64,1.907-2.224,2.273-3.78,2.522c-1.549,0.248-3.07,0.229-3.49-2.008
				c-0.149-0.792-1.128-1.368-2.226-1.178c-0.453,0.079-0.945,0.007-1.475-0.199c-2.071-0.805-2.898-0.602-3.141,1.416
				c-0.443,3.679-2.951,5.769-5.043,8.32c-1.594,1.943-3.907,1.461-5.733,2.457c-0.491,0.268-0.903-0.217-1.343-0.531
				c-2.131-1.52-2.79-1.551-4.547,0.225c-1.285,1.299-2.947,1.89-4.459,2.641c-1.839,0.914-3.317-0.288-3.401-2.313
				c-0.033-0.798-0.015-1.598-0.003-2.397c0.013-0.808-0.67-1.158-1.145-1.489c-0.665-0.464-1.164,0.19-1.592,0.676
				c-0.163,0.185-0.282,0.412-0.417,0.622c-1.877,2.918-3.537,3.397-6.59,1.899c-2.153-1.056-2.721-1.682-1.846-3.755
				c0.469-1.111,0.039-1.382-0.454-1.714c-0.639-0.431-1.835-0.577-2.04,0.154c-0.893,3.181-3.001,1.767-4.917,1.835
				c0.842-2.862,1.854-5.256,3.765-7.171c0.434-0.435,1.252-0.776,1.02-1.538c-0.247-0.811-0.651-2.109-1.172-2.21
				c-2.893-0.564-2.079-2.871-1.791-4.368c0.175-0.909,0.778-1.908,0.594-2.888c-0.304-1.62-1.684-0.528-2.535-0.823
				c-1.239-0.43-1.536-1.63-0.744-2.662c0.847-1.105,2.41-1.657,2.6-3.306c-0.145-0.13-0.232-0.275-0.342-0.296
				c-0.372-0.069-0.752-0.089-1.129-0.136c-3.341-0.413-4.313-2.535-2.325-5.358c0.846-1.201,0.847-2.14-0.227-3.015
				c-0.71-0.578-0.899-1.263-0.766-2.083c0.336-2.073-1.242-3.485-1.751-5.265c-0.04-0.14-0.425-0.219-0.66-0.253
				c-0.477-0.07-0.719,0.224-0.74,0.665c-0.03,0.664-0.003,1.331-0.009,1.997c-0.012,1.429,0.229,2.887-1.282,3.881
				c-0.736,0.484-0.163,1.068,0.255,1.627c1.517,2.029,1.49,2.05-0.189,3.844c-0.181,0.193-0.371,0.376-0.556,0.566
				c-0.874,0.895-2.195,1.609-0.648,3.146c0.351,0.349-0.051,1.358-0.477,2.125c-0.618,1.111-0.532,2.506,0.687,3.489
				c0.511,0.412,0.933,0.936,1.401,1.402c0.458,0.455,1.173,0.95,0.743,1.618c-0.381,0.591-0.843,1.344-1.842,1.223
				c-0.952-0.115-1.708,0.118-2.308-1.267c-0.395-0.913-2.313-0.282-3.467-0.321c-0.119,0.375-0.221,0.523-0.184,0.605
				c0.411,0.894,0.789,1.81,1.288,2.653c0.399,0.675,0.436,1.031-0.308,1.533c-2.723,1.839-2.586,1.852-1.933,5.075
				c0.297,1.467,0.618,3.119-0.308,4.543c-1.636,2.518-3.294,5.023-5.026,7.473c-0.541,0.765-1.402,1.296-0.279,2.254
				c0.223,0.191,0.245,0.71,0.24,1.076c-0.015,1.251-1.036,2.063-2.322,1.935c-1.324-0.131-0.766-1.159-0.79-1.808
				c-0.053-1.414-0.34-2.948,1.224-3.875c0.566-0.335,0.28-0.958,0.317-1.455c0.047-0.638-0.152-1.32,0.521-1.785
				c1.54-1.064,1.13-2.053-0.1-3.063c-1.245-1.022-1.918-2.123-0.486-3.608c0.255-0.265,0.253-0.894,0.564-1.348
				c0.55-0.802,0.575-1.714-0.279-2.419c-0.586-0.483-0.923-1.29-2.114-1.486c-0.569,0.576-1.753,1.209-1.926,2.055
				c-0.53,2.583-2.241,1.939-3.804,1.961c-0.646-1.832-0.223-3.188,1.214-4.239c1.377-1.007,1.958-2.35,1.701-4.084
				c-0.166-1.118,0.36-2.339-0.747-3.323c-0.233-0.207-0.176-1.167,0.224-1.829c0.925-1.529,1.074-3.547,0.05-4.728
				c-1.142-1.318-1.052-2.565-1.124-3.977c-0.031-0.605,0.34-1.491-0.478-1.702c-0.69-0.178-1.509-0.243-2.116,0.561
				c-0.785,1.039-1.993,1.498-3.201,1.761c-1.045,0.227-2.069,0.075-2.724-1.019c-0.579-0.967,0.594-1.304,0.638-2.011
				c0.057-0.929,0.701-1.524,1.368-1.684c1.286-0.308,1.86-1.372,2.655-2.169c1.138-1.14,0.986-2.198-0.26-3.27
				c-2.538-2.183-2.722-2.437-1.326-5.047c0.638-1.193,0.394-1.733-0.485-2.392c-0.399-0.299-0.627-0.822-1.268-0.785
				c-0.256,0.015-0.959-0.13-0.406-0.599c1.095-0.93-0.014-2.354,0.822-3.263c1.375-1.495-0.031-1.537-0.912-1.948
				c-1.144-0.534-1.992-1.21-1.804-2.789c0.116-0.974,0.269-1.757,1.042-2.379c0.856-0.689,0.976-1.857,0.288-2.376
				c-1.434-1.083-1.46-2.501-1.223-3.893c0.228-1.341-0.79-2.107-1.006-3.216c-0.037-0.188-0.195-0.351-0.387-0.507V2400H1700z
				 M1468.057,1886.09c0.784-0.797,2.544-0.895,3.44-0.097c1.224,1.089,2.178,2.476,3.815,3.087
				c1.038,0.387,0.814,1.763,1.563,2.515c0.418,0.42-1.373,2.493-2.312,2.67c-0.377,0.071-0.778,0.012-1.27,0.012
				c-1.259,0.378-2.162-0.425-2.816-1.396c-0.776-1.151-1.481-2.318-2.479-3.317
				C1467.142,1888.707,1467.28,1886.88,1468.057,1886.09z M1393.921,1918.041c2.038-0.82,3.731-2.536,6.191-2.201
				c0.893,0.122,1.567,1.052,1.171,1.834c-0.169,0.335-0.411,0.688-0.713,0.889c-1.766,1.173-3.173,2.832-5.171,3.71
				c-1.749,0.769-2.605,0.497-2.764-1.194c-0.037-0.396-0.005-0.798-0.005-1.197
				C1392.492,1918.851,1392.887,1918.457,1393.921,1918.041z M1288.72,1929.443c0.752-0.015,1.703-0.204,1.482,1.091
				c-0.227,1.328,0.358,2.241,1.309,3.022c0.726,0.596,1.326,1.259,1.061,2.327c-0.013,0.743,0.186,1.343-1.013,1.656
				c-1.058,0.276-1.854,1.215-3.032,0.22c-0.722-0.61-0.976-1.498-0.625-2.072c0.973-1.592,0.994-2.971,0.005-4.558
				C1287.656,1930.724,1287.398,1929.468,1288.72,1929.443z M1123.14,2048.908c2.121-2.37,2.125-2.445,0.44-5.138
				c-0.4-0.64-0.348-1.207-0.378-1.83c-0.024-0.505-0.17-1.249,0.397-1.366c0.558-0.115,1.284-0.348,1.834,0.218
				c1.781,1.832,4.05,3.385,3.302,6.564c-0.177,0.75-0.026,1.58-0.026,2.373c0,1.587-0.091,3.18,0.033,4.757
				c0.079,1.014-0.553,1.569-1.151,1.867c-0.786,0.393-1.623,0.216-2.401-0.56c-1.375-1.371-1.826-3.224-2.736-4.827
				C1122.09,2050.325,1122.547,2049.571,1123.14,2048.908z M1053.92,2102.132h3.619c0.106,0.309,0.29,0.561,0.25,0.771
				c-0.381,2.045,0.48,3.47,1.959,4.792c0.899,0.804,2.048,1.454,2.05,3.123c0.004,3.529-0.27,4.309-4.025,6.344
				c-0.564,0.306-0.918,1.634-2.219,0.421c-0.191-1.896-0.646-4.135,1.714-5.875c0.942-0.694,0.748-2.525-0.076-3.466
				c-0.607-0.694-1.202-1.459-1.956-1.951C1053.763,2105.328,1053.78,2103.934,1053.92,2102.132z M939.626,2156.779
				c1.043-0.748,1.525-0.356,2.471,0.802c0.909,1.112,0.76,2.189,0.543,3.271c-0.088,0.44-0.656,1.14-1.667,1.166
				c-0.75-0.604-1.813-1.241-2.074-2.388C938.682,2158.68,938.553,2157.548,939.626,2156.779z M344.139,2142.034
				c1.063,0.618,2.325,0.908,3.113,2.007c0.37,0.516,1.016,0.906,0.629,1.643c-0.308,0.585-0.94,0.232-1.389,0.325
				c-1.658-0.068-3.373-1.901-3.218-3.481C343.313,2142.132,343.782,2141.826,344.139,2142.034z M199.549,2073.217
				c1.36-1.532,3.126-2.717,3.905-4.748c0.087-0.227,0.389-0.568,0.539-0.542c2.646,0.454,3.891-2.046,5.909-2.915
				c0.595-0.257,1.104-0.556,1.64-0.514c1.29-0.028,3.196,1.249,3.264,2.337c0.144,2.305-0.172,4.619,0.768,6.875
				c0.412,0.988-0.558,1.674-1.438,1.939c-0.603,0.182-1.302,0.027-1.958,0.036c-1.883,0.025-1.881,0.03-3.505,1.853
				c-0.264,0.296-0.555,0.566-0.833,0.849c-0.762,0.774-1.768,0.897-2.37,0.111c-1.476-1.925-3.83-2.297-5.676-3.551
				C198.773,2074.251,198.966,2073.873,199.549,2073.217z M146.314,2018.592c0.291-1.188,0.585-2.396,1.075-3.506
				c0.415-0.942,1.45-1.246,2.301-0.883c0.754,0.322,1.666,0.891,1.364,1.78c-0.145,1.497-2.453,3.648-3.711,3.763
				C146.474,2019.825,146.121,2019.379,146.314,2018.592z M118.42,1984.41c0.133-2.407,2.044-3.874,2.814-5.924
				c0.201-0.533,1.175-0.489,1.226-0.031c0.128,1.142,0.638,2.106,0.984,2.99c0.01,0.662,0.086,1.178-0.402,1.557
				c-1.077,0.838-1.697,2.214-3.237,2.548c-0.512,0.111-0.957,0.993-1.593,0.462C117.542,1985.455,118.393,1984.898,118.42,1984.41z
				 M103.639,1985.028c0.425-1.132,1.232-2.222,0.927-3.612c-0.171-0.78,0.615-1.15,1.086-1.497c0.661-0.489,1.15,0.138,1.596,0.609
				c1.648,1.738,2.693,3.373,1.391,6.068c-0.825,1.708-1.416,3.853-0.948,5.971c0.109,0.495-0.208,0.693-0.634,0.809
				c-0.559,0.01-1.038-0.143-0.931-0.858c0.213-1.423-0.432-2.104-1.618-2.892C102.536,1988.313,102.67,1987.608,103.639,1985.028z
				 M3.512,1950.011c0.793-0.874,1.571-1.673,2.953-1.423c0.884,0.16,1.82,0.059,2.73,0.018c0.481-0.021,0.686,0.211,0.809,0.615
				c0.001,0.131,0.043,0.282-0.005,0.392c-0.743,1.68-4.065,3.426-5.688,3C3.069,1952.288,2.658,1950.954,3.512,1950.011z"/>
			<path style="fill:#20201E;" d="M1071.197,2082.546c0.012,0.526,0.067,1.084-0.685,1.127c-3.034,0.175-4.584,2.182-5.595,4.763
				c-0.362,0.924-0.79,1.606-1.839,1.625c-0.611,0.01-1.376,0.186-1.331-0.861c0.029-0.665,0-1.249-0.58-1.76
				c-0.435-0.383-0.332-1.225,0.155-1.284c2.167-0.264,1.28-1.579,0.773-2.457c-0.678-1.174-0.988-2.507-1.823-3.635
				c-0.472-0.639-0.213-1.749,0.676-2.394c0.845-0.613,1.634-0.67,2.403,0.053c0.67,0.63,1.323,1.282,1.937,1.968
				c0.692,0.773,1.143,0.899,2.228,0.27C1069.026,2079.087,1071.015,2080.677,1071.197,2082.546z"/>
		</g>
	</g>
</g>
</svg>
